<svg width="54" height="54" viewBox="0 0 54 54" fill="none" xmlns="http://www.w3.org/2000/svg">
<path d="M4.49353 21.1958C4.73495 20.7634 5.0387 20.2339 5.35838 19.6876C5.04794 19.5067 4.79862 19.2372 4.64239 18.9136C4.48616 18.59 4.43014 18.2272 4.48152 17.8715C4.53291 17.5159 4.68934 17.1837 4.93077 16.9176C5.1722 16.6515 5.48761 16.4636 5.83657 16.3779C5.87348 16.1075 5.97135 15.8491 6.1228 15.6221C6.27424 15.395 6.4753 15.2054 6.71077 15.0675C6.94625 14.9296 7.20999 14.847 7.48207 14.826C7.75415 14.8049 8.02746 14.846 8.28134 14.9461C9.72626 12.6773 11.0168 10.7358 11.4122 10.1434L11.1214 8.75969C11.0927 8.62281 11.1195 8.48012 11.1959 8.36301C11.2724 8.24589 11.3923 8.16396 11.5291 8.13521C11.666 8.10647 11.8087 8.13328 11.9258 8.20975C12.0429 8.28622 12.1249 8.40607 12.1536 8.54296L12.4427 9.9188C13.1982 10.3755 16.0012 12.0939 18.8568 14.1488C20.2977 15.1858 21.5332 16.1491 22.5634 17.0387L21.091 10.013C20.567 7.54324 19.0851 5.38203 16.9702 4.00311C14.8553 2.62418 12.28 2.14003 9.80868 2.6568C7.33741 3.17357 5.17184 4.64909 3.78669 6.75991C2.40153 8.87074 1.9098 11.4446 2.41928 13.9174L4.09623 21.9188C4.22139 21.6871 4.35382 21.4461 4.49353 21.1958Z" fill="#0083FF"/>
<path d="M5.87152 20.9049C5.70509 21.1943 5.54953 21.4682 5.41442 21.7099C4.35298 23.611 3.71764 24.9656 3.52653 25.7358C3.3524 26.4358 3.66459 27.3291 4.43609 28.3715C4.92125 26.5708 5.89262 24.3742 7.33648 21.8107C7.03625 21.7934 6.74507 21.7015 6.48928 21.5433C6.23349 21.3852 6.02117 21.1658 5.87152 20.9049Z" fill="#0083FF"/>
<path d="M25.2929 21.9534C24.6147 19.0416 15.9442 13.2691 12.1336 10.9626C11.6186 11.7369 10.4506 13.5036 9.15942 15.5303C9.47794 15.4647 9.80825 15.4865 10.1154 15.5933C10.4226 15.7 10.6952 15.8878 10.9044 16.1367C11.8332 14.7846 12.5097 13.8731 12.5181 13.8623C12.5918 13.7631 12.698 13.6928 12.8181 13.6639C12.9383 13.635 13.0648 13.6492 13.1756 13.7041C15.1498 14.7295 17.0275 15.931 18.7858 17.2939C21.996 19.7819 24.1215 22.3204 25.1288 24.8611C25.4229 23.7465 25.4813 22.7635 25.2929 21.9534Z" fill="#0083FF"/>
<path d="M6.21338 30.3058C6.92996 30.9652 7.68006 31.5872 8.46071 32.1693L5.8029 27.5239C5.58624 28.1292 5.41193 28.7487 5.28125 29.3782C5.56039 29.6781 5.8711 29.9873 6.21338 30.3058Z" fill="#0083FF"/>
<path d="M9.91832 17.9333C10.049 17.8522 10.1517 17.7329 10.2123 17.5915C10.2729 17.4502 10.2886 17.2936 10.2572 17.143C10.2325 17.024 10.1791 16.9127 10.1017 16.819C10.0244 16.7252 9.92526 16.6517 9.81306 16.6049C9.70086 16.558 9.57893 16.5393 9.45784 16.5502C9.33674 16.5611 9.22014 16.6014 9.11813 16.6676C9.0504 16.7115 8.97348 16.7393 8.8933 16.7489C8.81311 16.7584 8.73181 16.7494 8.65566 16.7226C8.57951 16.6957 8.51054 16.6517 8.45407 16.594C8.3976 16.5363 8.35514 16.4664 8.32996 16.3896C8.2708 16.2095 8.14534 16.0586 7.97902 15.9675C7.81271 15.8764 7.61797 15.8519 7.4343 15.8991C7.25063 15.9463 7.09176 16.0615 6.9899 16.2214C6.88805 16.3814 6.85082 16.5741 6.88578 16.7605C6.90071 16.8401 6.89708 16.9222 6.87516 17.0002C6.85325 17.0782 6.81364 17.1502 6.75942 17.2104C6.70519 17.2707 6.63781 17.3176 6.56251 17.3476C6.48721 17.3775 6.40601 17.3898 6.32521 17.3833C6.25393 17.3775 6.18219 17.382 6.11217 17.3966C5.9296 17.4361 5.76839 17.5424 5.66018 17.6947C5.55197 17.8469 5.50457 18.0341 5.52729 18.2195C5.55001 18.4049 5.64121 18.5752 5.78298 18.6968C5.92475 18.8184 6.10687 18.8827 6.29357 18.8769H6.31361C6.40502 18.8768 6.49488 18.9005 6.57438 18.9456C6.65388 18.9908 6.72028 19.0558 6.76707 19.1343C6.81387 19.2128 6.83945 19.3022 6.84131 19.3935C6.84317 19.4849 6.82124 19.5752 6.77768 19.6556C6.69277 19.8111 6.66657 19.992 6.70385 20.1652C6.73734 20.3266 6.82323 20.4724 6.94817 20.5799C7.0731 20.6874 7.23006 20.7506 7.39463 20.7596C7.5592 20.7686 7.72214 20.723 7.85809 20.6298C7.99405 20.5367 8.09539 20.4012 8.14634 20.2444C8.17246 20.1645 8.21733 20.0919 8.2772 20.0328C8.33707 19.9737 8.41021 19.9298 8.49051 19.9048C8.57081 19.8797 8.65594 19.8742 8.73879 19.8887C8.82165 19.9033 8.89982 19.9374 8.96678 19.9883C9.12456 20.1048 9.32179 20.1546 9.51594 20.127C9.71009 20.0994 9.88561 19.9965 10.0046 19.8407C10.1236 19.6848 10.1766 19.4884 10.1522 19.2938C10.1277 19.0993 10.0277 18.9221 9.87382 18.8006C9.80617 18.7485 9.75216 18.6808 9.71645 18.6033C9.68073 18.5257 9.66437 18.4407 9.66877 18.3555C9.67317 18.2702 9.69819 18.1873 9.7417 18.1139C9.7852 18.0404 9.84589 17.9786 9.91853 17.9338L9.91832 17.9333ZM8.6605 18.6137C8.56712 18.7567 8.42702 18.8629 8.26409 18.9143C8.10115 18.9656 7.92546 18.9588 7.76696 18.8951C7.60846 18.8314 7.47695 18.7147 7.39486 18.5649C7.31277 18.4151 7.28516 18.2414 7.31675 18.0735C7.34835 17.9057 7.43718 17.7539 7.56811 17.6442C7.69904 17.5345 7.86397 17.4736 8.03478 17.4718C8.2056 17.4701 8.37173 17.5276 8.50487 17.6347C8.63801 17.7417 8.72991 17.8916 8.76492 18.0588C8.78508 18.1536 8.78623 18.2514 8.7683 18.3467C8.75038 18.4419 8.71374 18.5327 8.6605 18.6137Z" fill="#0083FF"/>
<path d="M24.0928 27.5286C24.2616 27.1884 24.413 26.8563 24.5497 26.5311C24.3448 25.6761 24.0236 24.8533 23.5949 24.0857L23.058 29.376C23.3888 28.8439 23.7524 28.2138 24.0928 27.5286Z" fill="#0083FF"/>
<path d="M13.3812 45.346C14.6696 46.1605 16.1671 46.5824 17.6912 46.5604C19.2153 46.5385 20.7001 46.0735 21.9645 45.2222C23.2289 44.3709 24.2182 43.17 24.8119 41.7662C25.4056 40.3623 25.5779 38.816 25.3079 37.3158L23.9033 30.0107C23.3648 30.8723 22.9171 31.4749 22.7811 31.6542C22.7092 31.7487 22.6085 31.8172 22.4942 31.8492C22.3799 31.8811 22.2583 31.8749 22.1478 31.8314C22.0374 31.7879 21.9442 31.7095 21.8824 31.6081C21.8206 31.5068 21.7937 31.388 21.8056 31.2699L22.681 22.6497C19.7451 18.6084 14.5599 15.6391 13.099 14.8541C12.751 15.3339 12.0936 16.254 11.3227 17.3969C11.3021 17.7696 11.1668 18.1269 10.9355 18.4199C11.1327 18.7262 11.2324 19.085 11.2214 19.4491C11.2104 19.8131 11.0893 20.1653 10.874 20.4591C10.6587 20.7529 10.3594 20.9745 10.0156 21.0947C9.67173 21.2149 9.29953 21.2279 8.94811 21.1322C7.81306 23.0423 6.92501 24.7552 6.29272 26.2566L10.4798 33.5731C10.5425 33.6817 10.5669 33.8082 10.5489 33.9322C10.5309 34.0563 10.4716 34.1706 10.3807 34.2569C10.2897 34.3431 10.1723 34.3962 10.0475 34.4076C9.92268 34.419 9.79766 34.3879 9.69262 34.3195C9.44856 34.1613 8.93124 33.8195 8.27933 33.3464L9.94215 40.5659C10.4205 42.5471 11.6548 44.2627 13.3812 45.346Z" fill="#0083FF"/>
<path d="M46.5328 20.9309C46.3528 20.8931 46.1651 20.923 46.0058 21.015C45.8465 21.107 45.7267 21.2545 45.6694 21.4293C45.6442 21.506 45.6017 21.5759 45.5453 21.6337C45.4888 21.6914 45.4198 21.7354 45.3437 21.7622C45.2675 21.7891 45.1862 21.7981 45.106 21.7885C45.0259 21.779 44.9489 21.7512 44.8812 21.7072C44.7981 21.6514 44.7047 21.6129 44.6064 21.5939C44.5082 21.5748 44.4071 21.5757 44.3092 21.5963C44.2113 21.617 44.1185 21.6571 44.0363 21.7142C43.9542 21.7714 43.8843 21.8444 43.8309 21.929C43.7774 22.0136 43.7415 22.1081 43.7251 22.2068C43.7088 22.3055 43.7124 22.4066 43.7358 22.5039C43.7592 22.6012 43.8018 22.6928 43.8612 22.7734C43.9206 22.8539 43.9955 22.9217 44.0815 22.9728C44.1542 23.0177 44.2149 23.0795 44.2583 23.1529C44.3018 23.2264 44.3269 23.3093 44.3312 23.3945C44.3356 23.4798 44.3193 23.5648 44.2835 23.6423C44.2478 23.7198 44.1938 23.7875 44.1262 23.8396C43.9768 23.9546 43.8762 24.1217 43.8446 24.3075C43.813 24.4934 43.8527 24.6843 43.9557 24.8422C44.0118 24.9281 44.0851 25.0016 44.1709 25.0579C44.2566 25.1143 44.3531 25.1523 44.4543 25.1697C44.5555 25.1871 44.6591 25.1834 44.7588 25.1589C44.8585 25.1344 44.952 25.0896 45.0336 25.0273C45.1006 24.9764 45.1788 24.9422 45.2616 24.9277C45.3445 24.9131 45.4296 24.9186 45.5099 24.9437C45.5902 24.9688 45.6634 25.0127 45.7232 25.0718C45.7831 25.1309 45.8279 25.2035 45.854 25.2835C45.9049 25.4403 46.0063 25.5758 46.1422 25.6691C46.2782 25.7623 46.4412 25.8079 46.6058 25.7989C46.7704 25.7898 46.9274 25.7266 47.0524 25.619C47.1773 25.5114 47.2631 25.3656 47.2965 25.2041C47.3338 25.0309 47.3076 24.8501 47.2227 24.6946C47.1783 24.6128 47.1564 24.5207 47.1592 24.4277C47.1619 24.3346 47.1892 24.244 47.2383 24.1649C47.2875 24.0859 47.3566 24.0212 47.4388 23.9775C47.521 23.9339 47.6133 23.9127 47.7063 23.9163C47.8089 23.9213 47.9115 23.9051 48.0076 23.8688C48.1037 23.8325 48.1913 23.7767 48.265 23.7051C48.3386 23.6335 48.3968 23.5474 48.4357 23.4523C48.4747 23.3573 48.4937 23.2552 48.4915 23.1525C48.4894 23.0497 48.4661 22.9486 48.4231 22.8552C48.3801 22.7619 48.3184 22.6784 48.2418 22.6099C48.1652 22.5415 48.0753 22.4895 47.9777 22.4573C47.8801 22.425 47.777 22.4132 47.6746 22.4226C47.5938 22.4291 47.5126 22.4169 47.4373 22.3869C47.362 22.357 47.2946 22.31 47.2404 22.2498C47.1861 22.1896 47.1465 22.1176 47.1246 22.0396C47.1027 21.9615 47.099 21.8795 47.114 21.7998C47.149 21.6079 47.1079 21.4098 46.9994 21.2476C46.8909 21.0854 46.7236 20.9718 46.5328 20.9309ZM46.679 23.401C46.644 23.5681 46.5521 23.7178 46.4191 23.8246C46.286 23.9315 46.12 23.9889 45.9494 23.9872C45.7788 23.9854 45.614 23.9245 45.4832 23.8149C45.3524 23.7052 45.2637 23.5537 45.2322 23.3859C45.2006 23.2182 45.2282 23.0448 45.3102 22.8951C45.3922 22.7455 45.5235 22.6289 45.6819 22.5652C45.8402 22.5015 46.0157 22.4947 46.1785 22.5459C46.3413 22.5971 46.4813 22.7032 46.5746 22.8461C46.6816 23.0099 46.7192 23.2095 46.6792 23.401H46.679Z" fill="#0083FF"/>
<path d="M29.8034 32.3561C30.1464 33.0621 30.5266 33.7494 30.9425 34.415L30.4058 29.1265C29.9767 29.8945 29.6552 30.7178 29.4503 31.5733C29.5578 31.8296 29.6755 32.0905 29.8034 32.3561Z" fill="#0083FF"/>
<path d="M28.7072 26.9933C28.519 27.8018 28.5782 28.7852 28.8723 29.8995C29.8797 27.3592 32.0047 24.8212 35.2148 22.3337C36.973 20.9706 38.8507 19.7692 40.825 18.7438C40.9357 18.689 41.0622 18.6748 41.1824 18.7037C41.3026 18.7326 41.4088 18.8028 41.4825 18.902C41.4904 18.9126 42.167 19.8244 43.0961 21.1764C43.3054 20.9275 43.578 20.7399 43.8851 20.6332C44.1922 20.5265 44.5225 20.5048 44.8409 20.5703C43.55 18.5437 42.3819 16.7771 41.8667 16.0028C38.0559 18.3094 29.3854 24.0813 28.7072 26.9933Z" fill="#0083FF"/>
<path d="M44.3673 39.3203C44.2592 39.3907 44.1306 39.4227 44.0021 39.4112C43.8736 39.3996 43.7528 39.3451 43.659 39.2565C43.5652 39.1679 43.504 39.0504 43.4852 38.9228C43.4663 38.7952 43.491 38.6649 43.5552 38.553L47.7079 31.2961C47.0751 29.7948 46.1876 28.0818 45.0525 26.1717C44.7012 26.2669 44.3293 26.2534 43.9857 26.1331C43.6422 26.0128 43.3432 25.7912 43.128 25.4976C42.9129 25.2039 42.7917 24.8521 42.7805 24.4882C42.7693 24.1244 42.8685 23.7657 43.0652 23.4594C42.8338 23.1664 42.6985 22.8091 42.6779 22.4363C41.9071 21.2937 41.2495 20.3737 40.9017 19.8938C39.4411 20.6795 34.2556 23.651 31.3198 27.6908L32.1835 36.2021C32.196 36.3272 32.1672 36.453 32.1016 36.5603C32.0359 36.6675 31.937 36.7503 31.8199 36.7961C31.7539 36.8218 31.6837 36.835 31.6128 36.8349C31.5232 36.835 31.4347 36.8141 31.3545 36.7739C31.2744 36.7338 31.2047 36.6755 31.151 36.6036C30.9583 36.345 30.5665 35.8021 30.1096 35.0733L28.6909 42.3627C28.3327 44.3723 28.7707 46.4424 29.9121 48.1347C31.0536 49.827 32.8089 51.0086 34.8063 51.4293C36.8038 51.85 38.8866 51.4767 40.6136 50.3886C42.3407 49.3004 43.5764 47.5828 44.0591 45.5994L45.7208 38.3846C45.1001 38.8355 44.6061 39.1646 44.3673 39.3203Z" fill="#0083FF"/>
<path d="M44.1995 7.67816C41.7248 7.16243 39.1465 7.64907 37.03 9.03137C34.9136 10.4137 33.4316 12.5788 32.909 15.0521L31.4366 22.0778C32.4666 21.1888 33.7021 20.2256 35.1432 19.188C37.9988 17.1331 40.8018 15.4146 41.5573 14.9579L41.8464 13.5821C41.8758 13.4459 41.958 13.3268 42.0749 13.251C42.1918 13.1751 42.334 13.1486 42.4704 13.1773C42.6067 13.206 42.7262 13.2875 42.8027 13.404C42.8792 13.5205 42.9065 13.6625 42.8785 13.799L42.5878 15.1828C42.9832 15.775 44.2732 17.7167 45.7186 19.9854C45.9725 19.8853 46.2458 19.8443 46.5178 19.8653C46.7899 19.8863 47.0536 19.9689 47.2891 20.1068C47.5246 20.2447 47.7256 20.4343 47.8771 20.6613C48.0285 20.8883 48.1264 21.1468 48.1634 21.4172C48.5121 21.5031 48.8272 21.6912 49.0684 21.9573C49.3096 22.2234 49.4658 22.5555 49.5172 22.911C49.5685 23.2664 49.5126 23.6291 49.3567 23.9526C49.2007 24.2761 48.9517 24.5457 48.6416 24.7269C48.9609 25.2727 49.2647 25.8027 49.5064 26.2351C49.6462 26.4855 49.7787 26.7264 49.9039 26.958L51.5809 18.9567C51.8371 17.7314 51.8493 16.4677 51.617 15.2377C51.3847 14.0077 50.9123 12.8356 50.2268 11.7882C49.5414 10.7408 48.6562 9.83875 47.6221 9.13354C46.5879 8.42832 45.4249 7.93378 44.1995 7.67816Z" fill="#0083FF"/>
<path d="M48.7188 34.4154C48.5882 33.7869 48.414 33.1682 48.1977 32.5637L45.5387 37.2103C46.6427 36.3804 47.7985 35.4035 48.7188 34.4154Z" fill="#0083FF"/>
<path d="M50.4742 30.7758C50.2825 30.0059 49.6471 28.6508 48.5857 26.75C48.4505 26.5074 48.295 26.234 48.1286 25.9448C47.979 26.2056 47.7668 26.425 47.5111 26.5831C47.2555 26.7413 46.9644 26.8332 46.6643 26.8506C48.1075 29.4128 49.0785 31.609 49.5641 33.4093C50.2709 32.4563 50.6635 31.5366 50.4742 30.7758Z" fill="#0083FF"/>
</svg>
