<svg width="54" height="54" viewBox="0 0 54 54" fill="none" xmlns="http://www.w3.org/2000/svg">
<path d="M13.2297 24.8751C13.2333 22.9611 13.773 21.0863 14.7876 19.4634C15.8022 17.8405 17.2512 16.5342 18.9703 15.6927H2.21484V30.7927H15.1262C13.8909 29.0669 13.2277 26.9974 13.2297 24.8751Z" fill="#0083FF"/>
<path d="M2.70148 33.6199H18.1716C17.3675 33.131 16.6339 32.5347 15.991 31.8474H2.21484V33.1376C2.2156 33.266 2.26725 33.3889 2.35847 33.4794C2.44969 33.5698 2.57304 33.6203 2.70148 33.6199Z" fill="#0083FF"/>
<path d="M35.4481 27.9211C35.4147 27.9134 35.3802 27.9123 35.3465 27.9181C35.3127 27.9238 35.2805 27.9362 35.2516 27.9545C35.223 27.9724 35.1983 27.9959 35.1788 28.0235C35.1594 28.0511 35.1456 28.0822 35.1383 28.1152L32.6492 39.3113C33.0443 39.1257 33.5263 38.9179 34.0444 38.7349L36.2433 28.1014L35.4481 27.9211Z" fill="#0083FF"/>
<path d="M41.0142 11.1687H43.7534V12.5452H41.0142V11.1687Z" fill="#0083FF"/>
<path d="M4.51324 11.1687H7.69619V12.5452H4.51324V11.1687Z" fill="#0083FF"/>
<path d="M36.7296 25.7481C36.8111 25.3774 37.0365 25.0541 37.3562 24.8494C37.6758 24.6446 38.0637 24.5751 38.4346 24.656L45.8438 26.288V15.6927H28.0547C29.3886 16.3415 30.565 17.2733 31.502 18.4232C32.439 19.5731 33.1139 20.9135 33.4799 22.3509C33.8458 23.7884 33.8939 25.2883 33.6209 26.7463C33.3478 28.2042 32.7601 29.5851 31.8988 30.7927H33.4625L34.1086 27.886C34.1462 27.7172 34.2168 27.5576 34.3164 27.4162C34.4159 27.2748 34.5424 27.1545 34.6886 27.0621C34.8348 26.9698 34.9978 26.9073 35.1683 26.8781C35.3387 26.849 35.5132 26.8538 35.6818 26.8924L36.4562 27.0681L36.7296 25.7481Z" fill="#0083FF"/>
<path d="M45.8438 9.57848C45.843 9.44997 45.7913 9.32701 45.7 9.23659C45.6087 9.14616 45.4852 9.09566 45.3567 9.09617H43.4392V8.01564H42.6516V9.0967H40.0609V8.01564H37.5798V9.0967H8.61353V7.4093H5.13633V9.09617H2.70148C2.57304 9.09578 2.44969 9.14633 2.35847 9.23674C2.26725 9.32715 2.2156 9.45004 2.21484 9.57848V14.638H45.8438V9.57848ZM12.3462 13.0726C12.3462 13.2124 12.2906 13.3465 12.1917 13.4454C12.0928 13.5443 11.9587 13.5999 11.8188 13.5999H3.98588C3.84601 13.5999 3.71188 13.5443 3.61299 13.4454C3.51409 13.3465 3.45853 13.2124 3.45853 13.0726V10.6418C3.45853 10.502 3.51409 10.3678 3.61299 10.2689C3.71188 10.17 3.84601 10.1145 3.98588 10.1145H11.8188C11.9587 10.1145 12.0928 10.17 12.1917 10.2689C12.2906 10.3678 12.3462 10.502 12.3462 10.6418V13.0726ZM38.0245 12.3844H35.5355C35.3956 12.3844 35.2615 12.3288 35.1626 12.2299C35.0637 12.131 35.0081 11.9969 35.0081 11.857C35.0081 11.7172 35.0637 11.583 35.1626 11.4841C35.2615 11.3852 35.3956 11.3297 35.5355 11.3297H38.0245C38.1644 11.3297 38.2985 11.3852 38.3974 11.4841C38.4963 11.583 38.5519 11.7172 38.5519 11.857C38.5519 11.9969 38.4963 12.131 38.3974 12.2299C38.2985 12.3288 38.1644 12.3844 38.0245 12.3844ZM44.8081 13.0726C44.8081 13.2124 44.7525 13.3465 44.6536 13.4454C44.5547 13.5443 44.4206 13.5999 44.2807 13.5999H40.4868C40.347 13.5999 40.2128 13.5443 40.1139 13.4454C40.015 13.3465 39.9595 13.2124 39.9595 13.0726V10.6418C39.9595 10.502 40.015 10.3678 40.1139 10.2689C40.2128 10.17 40.347 10.1145 40.4868 10.1145H44.2807C44.4206 10.1145 44.5547 10.17 44.6536 10.2689C44.7525 10.3678 44.8081 10.502 44.8081 10.6418V13.0726Z" fill="#0083FF"/>
<path d="M50.3197 36.0963C49.2329 35.5917 47.8722 35.7767 46.88 36.0414C46.396 36.1722 45.9214 36.3357 45.4595 36.5309C46.8026 37.5214 48.2103 38.421 49.6732 39.2238L50.3197 36.0963Z" fill="#0083FF"/>
<path d="M8.75085 11.1687H11.2915V12.5452H8.75085V11.1687Z" fill="#0083FF"/>
<path d="M45.1142 29.5857C44.646 29.4821 44.1557 29.568 43.7506 29.8247C43.3455 30.0814 43.0584 30.488 42.9521 30.9557C42.9004 31.1858 42.8948 31.4239 42.9358 31.6561C42.9767 31.8884 43.0634 32.1102 43.1908 32.3087C43.3838 32.6102 43.6616 32.848 43.9892 32.9922C44.3169 33.1363 44.6799 33.1804 45.0325 33.1189C45.3852 33.0574 45.7118 32.8931 45.9714 32.6466C46.231 32.4001 46.4119 32.0823 46.4915 31.7333C46.5432 31.5032 46.5488 31.2651 46.5078 31.0328C46.4668 30.8005 46.3801 30.5786 46.2527 30.3801C46.1249 30.179 45.9585 30.0051 45.7631 29.8688C45.5677 29.7324 45.3471 29.6362 45.1142 29.5857Z" fill="#0083FF"/>
<path d="M51.7746 29.064C51.7863 29.0157 51.7882 28.9656 51.7802 28.9165C51.7723 28.8674 51.7546 28.8205 51.7282 28.7783C51.7018 28.7362 51.6672 28.6998 51.6265 28.6712C51.5859 28.6426 51.5399 28.6225 51.4913 28.6119L38.2077 25.686C38.1109 25.6646 38.0095 25.6823 37.9257 25.7355C37.842 25.7886 37.7827 25.8727 37.7608 25.9695L35.7768 35.5641C36.4695 35.2072 37.1916 34.9103 37.935 34.6767C40.3924 33.9164 42.4895 34.167 44.0009 35.4014C44.1697 35.539 44.3373 35.6731 44.5039 35.8039C45.4432 35.3496 48.2807 34.1553 50.5378 35.0428L51.7746 29.064ZM47.5219 31.9621C47.3971 32.5147 47.1115 33.0179 46.7013 33.4086C46.2911 33.7992 45.7744 34.0598 45.2164 34.1574C44.6584 34.2551 44.084 34.1855 43.5655 33.9574C43.0469 33.7294 42.6075 33.353 42.3024 32.8757C42.1001 32.5604 41.9624 32.2081 41.8973 31.8392C41.8323 31.4703 41.8411 31.0922 41.9234 30.7268C42.0483 30.1742 42.3338 29.671 42.744 29.2804C43.1542 28.8897 43.6708 28.6292 44.2288 28.5315C44.7868 28.4338 45.3612 28.5034 45.8797 28.7314C46.3982 28.9595 46.8377 29.3358 47.1428 29.8131C47.3451 30.1284 47.4827 30.4807 47.5476 30.8496C47.6126 31.2185 47.6037 31.5967 47.5214 31.9621H47.5219Z" fill="#0083FF"/>
<path d="M43.3338 36.2179C40.6484 34.0242 36.4118 36.3727 35.4948 36.9276L34.7064 40.74C34.6947 40.7883 34.6928 40.8385 34.7007 40.8875C34.7087 40.9366 34.7264 40.9836 34.7528 41.0257C34.7792 41.0678 34.8137 41.1042 34.8544 41.1328C34.895 41.1614 34.941 41.1816 34.9896 41.1921L48.273 44.1175C48.3699 44.139 48.4713 44.1212 48.555 44.0681C48.6388 44.015 48.6981 43.9309 48.72 43.8341L49.4507 40.3009C47.2845 39.141 45.2359 37.7736 43.3338 36.2179Z" fill="#0083FF"/>
<path d="M14.2844 24.8751C14.2844 29.9383 18.4241 34.0575 23.5129 34.0575C28.6016 34.0575 32.7414 29.9383 32.7414 24.8751C32.7414 19.8118 28.6016 15.6927 23.5129 15.6927C18.4241 15.6927 14.2844 19.8119 14.2844 24.8751ZM31.5166 24.9101C31.5166 29.3791 27.8647 33.0149 23.376 33.0149C18.8872 33.0149 15.2354 29.3791 15.2354 24.9101C15.2354 20.4411 18.8872 16.8051 23.376 16.8051C27.8647 16.8051 31.5166 20.441 31.5166 24.9101Z" fill="#0083FF"/>
<path d="M16.29 24.91C16.29 28.7974 19.4688 31.9602 23.376 31.9602C27.2832 31.9602 30.4619 28.7974 30.4619 24.91C30.4619 21.0226 27.2832 17.8597 23.376 17.8597C19.4688 17.8597 16.29 21.0225 16.29 24.91ZM18.2523 23.0976C18.1575 22.9948 18.1076 22.8584 18.1133 22.7187C18.1191 22.579 18.1801 22.4472 18.283 22.3525L19.6369 21.1058C19.6878 21.0585 19.7475 21.0217 19.8126 20.9975C19.8777 20.9734 19.947 20.9624 20.0164 20.965C20.0858 20.9677 20.154 20.9841 20.217 21.0133C20.2801 21.0424 20.3368 21.0837 20.3838 21.1348C20.4309 21.1859 20.4674 21.2457 20.4912 21.311C20.5151 21.3762 20.5258 21.4455 20.5228 21.5149C20.5197 21.5843 20.503 21.6524 20.4736 21.7154C20.4442 21.7783 20.4026 21.8348 20.3513 21.8816L18.9974 23.1282C18.8945 23.2229 18.7582 23.2729 18.6185 23.2671C18.4787 23.2614 18.347 23.2003 18.2523 23.0974V23.0976ZM22.4717 22.4685L19.5209 25.2066C19.4179 25.2988 19.2828 25.3469 19.1447 25.3405C19.0066 25.3341 18.8765 25.2737 18.7825 25.1724C18.6885 25.071 18.638 24.9368 18.642 24.7986C18.6459 24.6604 18.704 24.5293 18.8037 24.4335L21.7543 21.6949C21.8048 21.6464 21.8644 21.6084 21.9298 21.5832C21.9951 21.5579 22.0648 21.546 22.1348 21.548C22.2048 21.55 22.2737 21.5659 22.3375 21.5949C22.4013 21.6238 22.4587 21.6651 22.5063 21.7165C22.5539 21.7678 22.5908 21.8281 22.6149 21.8939C22.639 21.9597 22.6497 22.0296 22.6465 22.0995C22.6432 22.1695 22.6261 22.2381 22.596 22.3014C22.566 22.3646 22.5236 22.4213 22.4715 22.468L22.4717 22.4685Z" fill="#0083FF"/>
<path d="M45.651 46.953L46.1454 44.7294L34.7625 42.2221C34.5791 42.1819 34.4055 42.1058 34.2516 41.9984C34.0976 41.8909 33.9664 41.7542 33.8654 41.5959C33.7644 41.4377 33.6956 41.2611 33.6629 41.0762C33.6302 40.8914 33.6343 40.7019 33.675 40.5186L33.7903 39.9612C33.1559 40.2221 32.6263 40.4933 32.3533 40.6398L31.6361 43.8662C31.6288 43.8988 31.628 43.9327 31.6338 43.9657C31.6396 43.9986 31.652 44.0301 31.67 44.0583C31.6882 44.0869 31.7119 44.1116 31.7397 44.131C31.7675 44.1504 31.7988 44.1641 31.8319 44.1713L45.3438 47.1476C45.4103 47.1624 45.48 47.1503 45.5376 47.1138C45.5952 47.0773 45.636 47.0195 45.651 46.953Z" fill="#0083FF"/>
<path d="M33.2281 31.8474H31.0343C30.3914 32.5347 29.6578 33.131 28.8536 33.6199H32.834L33.2281 31.8474Z" fill="#0083FF"/>
</svg>
