<svg width="54" height="54" viewBox="0 0 54 54" fill="none" xmlns="http://www.w3.org/2000/svg">
<path d="M24.0152 37.6446C25.0357 37.7542 26.0676 37.6161 27.0234 37.2421C27.9792 36.8681 28.8307 36.2691 29.5058 35.496C32.859 31.6504 40.6124 22.089 40.191 16.3768C40.0296 14.189 38.5126 12.9054 35.4366 12.3707C35.8838 14.9563 35.5632 17.9834 34.4791 21.2633C33.8443 23.1967 33.0107 25.0591 31.9919 26.8207C31.9184 26.9386 31.8014 27.0227 31.6663 27.0548C31.5312 27.0868 31.3888 27.0643 31.2702 26.9921C31.1516 26.9199 31.0662 26.8038 31.0327 26.669C30.9992 26.5342 31.0202 26.3917 31.0911 26.2723C31.1453 26.183 36.4863 17.2728 33.8511 10.567C33.6256 9.99347 32.7823 9.39072 31.7523 9.06746C30.6311 8.71529 29.5357 8.7405 28.7447 9.12367C28.978 10.5411 29.1962 13.0221 29.2559 17.4557C29.3137 21.7455 29.1933 25.828 29.1921 25.8688C29.1879 26.0058 29.1307 26.1358 29.0323 26.2313C28.934 26.3268 28.8024 26.3803 28.6653 26.3804C28.66 26.3804 28.6546 26.3804 28.6492 26.3804C28.5094 26.3762 28.377 26.3166 28.2811 26.2148C28.1852 26.113 28.1337 25.9773 28.1379 25.8375C28.1391 25.7969 28.2589 21.7348 28.2012 17.467C28.0977 9.79941 27.5185 8.13406 27.2743 7.77378C26.747 6.99637 25.7009 6.58409 24.4029 6.64315C22.9158 6.71054 21.4974 7.36994 20.7929 8.28635C24.7663 12.7122 24.4609 25.0664 24.4448 25.6248C24.4408 25.7646 24.3814 25.8972 24.2796 25.9932C24.1779 26.0893 24.0422 26.141 23.9023 26.137C23.7625 26.133 23.6299 26.0736 23.5339 25.9718C23.4378 25.8701 23.3861 25.7344 23.3901 25.5945C23.4287 23.0819 23.3013 20.5694 23.0088 18.0735C22.3897 12.9946 21.109 9.63382 19.305 8.3548C18.3229 7.65871 17.1864 7.57254 15.831 8.09197C14.3838 8.64041 13.5476 9.50526 13.273 10.7357C12.7862 12.9167 14.0871 16.2683 17.0351 20.4282C18.487 22.4575 20.0738 24.3868 21.7846 26.2032C21.8818 26.3037 21.9352 26.4387 21.933 26.5786C21.9307 26.7184 21.8729 26.8517 21.7724 26.9489C21.7227 26.9971 21.6639 27.035 21.5995 27.0605C21.5351 27.0859 21.4663 27.0985 21.397 27.0973C21.2572 27.0951 21.124 27.0373 21.0267 26.9368C20.6364 26.5335 11.9693 17.5031 12.1243 11.523C11.0006 11.3233 9.51855 11.7867 8.36957 12.7299C7.34157 13.5736 6.82698 14.5967 6.95755 15.5383C7.01736 15.9698 7.69584 17.5987 12.6929 23.3923C15.4733 26.6162 18.248 29.5695 18.2757 29.5991C18.3267 29.6488 18.367 29.7083 18.3943 29.774C18.4217 29.8397 18.4354 29.9103 18.4347 29.9815C18.4341 30.0526 18.419 30.1229 18.3904 30.1881C18.3618 30.2533 18.3204 30.312 18.2685 30.3608C18.2166 30.4095 18.1554 30.4473 18.0886 30.4717C18.0217 30.4962 17.9506 30.5068 17.8796 30.5031C17.8085 30.4993 17.7389 30.4812 17.675 30.4498C17.6111 30.4185 17.5542 30.3745 17.5078 30.3206C17.48 30.2909 14.6918 27.3233 11.8969 24.0826C9.00839 20.7338 7.5273 18.7378 6.76054 17.5258C5.91753 17.7705 5.08854 18.4812 4.49222 19.4884C3.94379 20.414 3.72135 21.4229 3.93767 21.9986C4.79312 24.2767 6.74314 26.5775 9.57761 28.6527C11.9264 30.3724 14.4207 31.5961 15.8431 32.1213C15.9081 32.1453 15.9677 32.1819 16.0185 32.2289C16.0693 32.276 16.1104 32.3325 16.1394 32.3954C16.1683 32.4583 16.1846 32.5263 16.1873 32.5955C16.19 32.6647 16.1791 32.7338 16.1551 32.7988C16.1311 32.8637 16.0945 32.9233 16.0475 32.9742C16.0005 33.025 15.9439 33.0661 15.881 33.0951C15.8181 33.124 15.7501 33.1403 15.6809 33.143C15.6117 33.1457 15.5426 33.1347 15.4776 33.1107C13.0613 32.2184 6.87782 29.0818 3.94452 24.3651C2.04482 26.7908 1.77387 28.8183 3.11491 30.547C6.81812 35.3215 18.9649 37.1012 24.0152 37.6446Z" fill="#0083FF"/>
<path d="M43.2868 41.4703C41.4272 42.3053 39.4865 42.9462 37.4953 43.3827C37.4618 43.3892 37.4277 43.3925 37.3935 43.3926C37.2625 43.3925 37.1362 43.3436 37.0392 43.2555C36.9423 43.1674 36.8816 43.0463 36.869 42.9159C36.8564 42.7855 36.8929 42.655 36.9712 42.55C37.0495 42.445 37.1641 42.3729 37.2927 42.3477C37.3953 42.3275 47.5959 40.2574 50.787 33.7953C51.0597 33.243 50.9373 32.2148 50.4825 31.2368C49.9881 30.1739 49.2328 29.3836 48.4186 29.0566C47.5275 30.1833 45.8367 32.0174 42.5862 35.0558C39.4477 37.9895 36.3429 40.6523 36.3119 40.6789C36.2056 40.7689 36.068 40.8133 35.929 40.8022C35.7901 40.791 35.6613 40.7254 35.5706 40.6196C35.48 40.5138 35.4349 40.3764 35.4452 40.2374C35.4555 40.0984 35.5204 39.9692 35.6258 39.8779C39.6374 36.441 45.7537 30.8403 47.7697 28.1827C47.7925 28.1422 47.8205 28.1048 47.8532 28.0717C48.1665 27.6471 48.3661 27.3044 48.4234 27.0669C48.6385 26.1781 48.243 25.1483 47.3382 24.2415C46.268 23.1687 44.7473 22.5359 43.5696 22.6348C42.959 28.5565 33.7161 36.6493 33.2956 37.0145C33.19 37.1062 33.0523 37.1522 32.9128 37.1423C32.7733 37.1325 32.6434 37.0677 32.5517 36.962C32.46 36.8564 32.414 36.7187 32.4238 36.5792C32.4336 36.4397 32.4985 36.3098 32.6041 36.2181C34.4774 34.5468 36.2382 32.7534 37.8749 30.8497C41.1903 26.9571 42.7958 23.7384 42.5176 21.5414C42.3911 20.5444 41.8798 19.7559 40.9625 19.1449C39.6066 24.8273 33.9321 32.0244 30.3012 36.1892C29.5146 37.0903 28.5223 37.7884 27.4085 38.2244C26.2946 38.6603 25.0921 38.8212 23.9028 38.6933C23.4255 38.642 22.9204 38.5838 22.3939 38.5185C22.6427 41.2484 22.8389 43.0822 24.1 44.7997C24.7078 45.6268 25.5063 46.2949 26.4277 46.7471C27.3491 47.1992 28.3661 47.4221 29.3921 47.3968C34.5007 47.2756 46.8091 46.5444 50.7566 42.3831C52.2638 40.7945 52.1958 38.75 50.5457 36.1483C48.9324 38.2348 46.4644 40.0509 43.2868 41.4703Z" fill="#0083FF"/>
</svg>
