<svg width="54" height="54" viewBox="0 0 54 54" fill="none" xmlns="http://www.w3.org/2000/svg">
<path d="M14.9061 20.486C14.8072 20.3872 14.6731 20.3317 14.5333 20.3317C14.3936 20.3317 14.2595 20.3872 14.1606 20.486L13.144 21.5015C12.9613 21.6841 12.8163 21.9008 12.7174 22.1394C12.6185 22.378 12.5676 22.6338 12.5676 22.8921C12.5676 23.1504 12.6185 23.4061 12.7174 23.6447C12.8163 23.8833 12.9613 24.1001 13.144 24.2826C13.3263 24.4662 13.5432 24.612 13.782 24.7116C14.0208 24.8112 14.277 24.8627 14.5357 24.863C14.7945 24.8634 15.0508 24.8127 15.2899 24.7138C15.529 24.6149 15.7463 24.4697 15.9291 24.2867C16.112 24.1036 16.257 23.8862 16.3557 23.647C16.4543 23.4078 16.5048 23.1515 16.5042 22.8927C16.5036 22.6339 16.4519 22.3778 16.352 22.1391C16.2522 21.9004 16.1062 21.6837 15.9225 21.5015L14.9061 20.486Z" fill="#0083FF"/>
<path d="M9.87109 30.1938C10.2599 30.194 10.6399 30.0788 10.9632 29.8628C11.2865 29.6468 11.5385 29.3398 11.6872 28.9806C11.8359 28.6214 11.8748 28.2262 11.7988 27.8449C11.7228 27.4636 11.5355 27.1134 11.2604 26.8387L10.2438 25.8231C10.1449 25.7243 10.0109 25.6688 9.87109 25.6688C9.73131 25.6688 9.59725 25.7243 9.49837 25.8231L8.48186 26.8387C8.20666 27.1134 8.01916 27.4636 7.9431 27.8449C7.86705 28.2262 7.90585 28.6215 8.0546 28.9808C8.20336 29.34 8.45537 29.6471 8.77873 29.863C9.10209 30.079 9.48226 30.1941 9.87109 30.1938Z" fill="#0083FF"/>
<path d="M38.1132 23.9653C38.0143 23.8665 37.8803 23.811 37.7405 23.811C37.6007 23.811 37.4666 23.8665 37.3677 23.9653L36.3512 24.9809C36.0762 25.2557 35.8888 25.606 35.8128 25.9873C35.7368 26.3686 35.7756 26.7639 35.9244 27.1232C36.0731 27.4825 36.325 27.7896 36.6483 28.0056C36.9716 28.2217 37.3517 28.337 37.7405 28.337C38.1294 28.337 38.5095 28.2217 38.8327 28.0056C39.156 27.7896 39.408 27.4825 39.5567 27.1232C39.7054 26.7639 39.7442 26.3686 39.6683 25.9873C39.5923 25.606 39.4049 25.2557 39.1298 24.9809L38.1132 23.9653Z" fill="#0083FF"/>
<path d="M42.447 29.7769C42.447 30.1002 42.5268 30.4185 42.6792 30.7036C42.8316 30.9887 43.052 31.2318 43.3208 31.4113C43.5896 31.5909 43.8986 31.7014 44.2203 31.7331C44.542 31.7647 44.8666 31.7165 45.1652 31.5927C45.4639 31.4689 45.7274 31.2734 45.9324 31.0235C46.1374 30.7735 46.2776 30.4768 46.3406 30.1598C46.4036 29.8427 46.3874 29.5149 46.2934 29.2056C46.1995 28.8963 46.0307 28.6149 45.802 28.3864L44.7854 27.3708C44.6865 27.272 44.5524 27.2166 44.4126 27.2166C44.2729 27.2166 44.1388 27.272 44.0399 27.3708L43.0234 28.3864C42.8401 28.5685 42.6948 28.7852 42.5958 29.0239C42.4969 29.2626 42.4463 29.5185 42.447 29.7769Z" fill="#0083FF"/>
<path d="M14.9541 7.40188C15.0939 7.40188 15.2281 7.34632 15.327 7.24742C15.4259 7.14852 15.4814 7.01439 15.4814 6.87453C15.4814 6.73467 15.4259 6.60054 15.327 6.50164C15.2281 6.40275 15.0939 6.34719 14.9541 6.34719C14.4022 6.34719 13.9531 5.94071 13.9531 5.441C13.9558 5.28815 13.998 5.13861 14.0756 5.00691C14.1533 4.87521 14.2636 4.76584 14.396 4.68943C14.4798 4.63827 14.5475 4.56478 14.5918 4.47721C14.636 4.38964 14.6549 4.29146 14.6464 4.19373C14.6446 4.17348 14.6434 4.15323 14.6434 4.13255C14.6434 3.70171 15.0326 3.35124 15.5113 3.35124C15.6903 3.3502 15.8657 3.40113 16.0164 3.49784C16.0778 3.53768 16.1468 3.56429 16.2191 3.57598C16.2913 3.58767 16.3652 3.58419 16.4361 3.56576C16.5069 3.54733 16.5732 3.51435 16.6306 3.46891C16.688 3.42348 16.7353 3.3666 16.7695 3.30188C16.874 3.11774 17.026 2.96505 17.2097 2.85979C17.3934 2.75453 17.602 2.70057 17.8136 2.70356C18.4527 2.70356 18.9725 3.17648 18.9725 3.75772C18.9726 3.93792 18.9223 4.11456 18.8273 4.26766C18.7552 4.38587 18.7325 4.5277 18.7641 4.66251C18.7956 4.79733 18.879 4.91432 18.9961 4.98822C19.0588 5.0254 19.111 5.07788 19.1479 5.14074C19.1848 5.2036 19.2051 5.2748 19.207 5.34766C19.207 5.48752 19.2626 5.62165 19.3615 5.72055C19.4603 5.81944 19.5945 5.875 19.7343 5.875C19.8742 5.875 20.0083 5.81944 20.1072 5.72055C20.2061 5.62165 20.2617 5.48752 20.2617 5.34766C20.2614 5.00445 20.1398 4.6724 19.9184 4.41015C19.9903 4.20014 20.027 3.9797 20.0271 3.75772C20.0271 2.59493 19.0341 1.64887 17.8135 1.64887C17.4957 1.64641 17.1809 1.71139 16.8901 1.83952C16.5992 1.96766 16.3388 2.15603 16.126 2.39221C15.9274 2.32847 15.7201 2.29612 15.5115 2.29634C14.5095 2.29634 13.6834 3.03262 13.5965 3.96855C13.379 4.14754 13.2037 4.37231 13.0831 4.62683C12.9625 4.88136 12.8996 5.15935 12.8988 5.441C12.8988 6.52227 13.8206 7.40188 14.9541 7.40188Z" fill="#0083FF"/>
<path d="M9.66099 13.4108C9.7992 13.4248 9.93733 13.3836 10.0454 13.2963C10.1534 13.209 10.2227 13.0826 10.238 12.9445C10.2534 12.8065 10.2137 12.6679 10.1275 12.559C10.0413 12.45 9.91563 12.3795 9.77774 12.3627C9.59029 12.344 9.41707 12.2544 9.29353 12.1122C9.2397 12.0512 9.19906 11.9798 9.17418 11.9024C9.14929 11.8249 9.1407 11.7432 9.14894 11.6623C9.16295 11.5578 9.20373 11.4587 9.26734 11.3746C9.33095 11.2905 9.41521 11.2242 9.51196 11.1823C9.60068 11.1408 9.67608 11.0754 9.72971 10.9934C9.78334 10.9114 9.81308 10.8162 9.8156 10.7182C9.8156 10.7044 9.81666 10.6906 9.81813 10.6774C9.85083 10.3886 10.1422 10.1831 10.4689 10.2199C10.5925 10.2329 10.7097 10.2814 10.8064 10.3595C10.863 10.4059 10.9286 10.44 10.9991 10.4596C11.0695 10.4792 11.1433 10.484 11.2157 10.4736C11.2881 10.4632 11.3576 10.4378 11.4197 10.3991C11.4817 10.3603 11.5351 10.3091 11.5763 10.2487C11.6657 10.1259 11.7864 10.0295 11.9259 9.96948C12.0654 9.90946 12.2184 9.88809 12.369 9.9076C12.5896 9.92979 12.7933 10.0354 12.9385 10.2029C13.0028 10.2758 13.0513 10.3612 13.081 10.4538C13.1106 10.5464 13.1208 10.6441 13.1108 10.7408C13.0968 10.8662 13.048 10.9851 12.97 11.0842C12.8852 11.1936 12.8468 11.332 12.8632 11.4695C12.8795 11.607 12.9493 11.7325 13.0574 11.819C13.0905 11.8436 13.1169 11.8762 13.1342 11.9137C13.1515 11.9511 13.1591 11.9924 13.1563 12.0335C13.1483 12.1025 13.154 12.1724 13.1731 12.2392C13.1921 12.3059 13.2242 12.3683 13.2674 12.4226C13.3107 12.477 13.3642 12.5223 13.425 12.5559C13.4857 12.5895 13.5525 12.6107 13.6216 12.6184C13.6906 12.6262 13.7604 12.6202 13.8271 12.6008C13.8938 12.5815 13.956 12.5491 14.0102 12.5057C14.0643 12.4622 14.1094 12.4085 14.1427 12.3476C14.1761 12.2867 14.1971 12.2198 14.2045 12.1507C14.2354 11.8717 14.1731 11.5903 14.0274 11.3503C14.0951 11.1936 14.1392 11.0277 14.1582 10.8581C14.1849 10.6181 14.1615 10.3751 14.0896 10.1446C14.0177 9.91404 13.8988 9.7009 13.7404 9.51863C13.4086 9.13635 12.9409 8.89827 12.4365 8.85484C11.9322 8.81141 11.4307 8.96604 11.0384 9.28596C10.8934 9.22759 10.7411 9.18927 10.5857 9.17206C10.1924 9.12168 9.79425 9.21645 9.4658 9.4386C9.13735 9.66075 8.90117 9.99504 8.80152 10.3788C8.61151 10.5088 8.45116 10.6775 8.33098 10.8739C8.2108 11.0703 8.13352 11.2898 8.10422 11.5182C8.07492 11.7465 8.09425 11.9785 8.16095 12.1989C8.22765 12.4192 8.34021 12.6229 8.49123 12.7967C8.78853 13.1431 9.207 13.3628 9.66099 13.4108Z" fill="#0083FF"/>
<path d="M32.4619 5.8746C32.6017 5.8746 32.7359 5.81904 32.8348 5.72015C32.9337 5.62125 32.9892 5.48712 32.9892 5.34726C32.9912 5.27433 33.0116 5.20309 33.0486 5.14023C33.0856 5.07736 33.138 5.02492 33.2008 4.98782C33.3179 4.91392 33.4012 4.79693 33.4328 4.66211C33.4644 4.5273 33.4416 4.38547 33.3695 4.26726C33.2745 4.11414 33.2243 3.93751 33.2244 3.75732C33.2244 3.17608 33.7442 2.70316 34.3832 2.70316C34.5949 2.70017 34.8035 2.75413 34.9872 2.85939C35.1709 2.96464 35.3229 3.11734 35.4273 3.30148C35.4616 3.36614 35.5089 3.42296 35.5663 3.46834C35.6237 3.51372 35.6899 3.54666 35.7607 3.56507C35.8315 3.58348 35.9053 3.58696 35.9776 3.57528C36.0498 3.5636 36.1188 3.53702 36.1802 3.49723C36.3308 3.40053 36.5063 3.3496 36.6854 3.35063C37.1639 3.35063 37.5533 3.7011 37.5533 4.13194C37.5533 4.15304 37.552 4.17287 37.5501 4.19312C37.5416 4.29085 37.5605 4.38903 37.6048 4.4766C37.649 4.56417 37.7168 4.63766 37.8005 4.68882C37.9328 4.76529 38.0432 4.87467 38.1208 5.00636C38.1984 5.13804 38.2407 5.28756 38.2435 5.44039C38.2435 5.9401 37.7944 6.34658 37.2424 6.34658C37.1025 6.34658 36.9684 6.40213 36.8695 6.50103C36.7706 6.59993 36.715 6.73406 36.715 6.87392C36.715 7.01378 36.7706 7.14791 36.8695 7.24681C36.9684 7.3457 37.1025 7.40126 37.2424 7.40126C38.3758 7.40126 39.2982 6.52165 39.2982 5.44039C39.2973 5.15871 39.2344 4.88069 39.1137 4.62616C38.993 4.37163 38.8177 4.14688 38.6002 3.96794C38.5133 3.03201 37.6875 2.29573 36.6853 2.29573C36.4767 2.29549 36.2694 2.32784 36.0708 2.3916C35.8581 2.15544 35.5977 1.96708 35.3068 1.83894C35.0159 1.71081 34.7012 1.64582 34.3833 1.64826C33.1628 1.64826 32.1698 2.59431 32.1698 3.75711C32.1699 3.97904 32.2066 4.19943 32.2784 4.40943C32.057 4.67175 31.9354 5.00382 31.9351 5.34705C31.935 5.48685 31.9905 5.62096 32.0893 5.71989C32.188 5.81881 32.3221 5.87446 32.4619 5.8746Z" fill="#0083FF"/>
<path d="M38.6742 8.85932C38.1872 8.91085 37.7382 9.14654 37.4192 9.51818C37.2608 9.70047 37.1419 9.9136 37.0699 10.1441C36.998 10.3747 36.9747 10.6176 37.0013 10.8576C37.0203 11.0273 37.0644 11.1932 37.1321 11.35C36.9866 11.59 36.9246 11.8714 36.9557 12.1504C36.9625 12.2199 36.983 12.2875 37.0161 12.3491C37.0492 12.4107 37.0942 12.465 37.1485 12.5091C37.2027 12.5531 37.2653 12.5859 37.3323 12.6056C37.3994 12.6252 37.4697 12.6313 37.5392 12.6236C37.6087 12.6158 37.6759 12.5943 37.737 12.5603C37.7981 12.5263 37.8518 12.4805 37.895 12.4256C37.9383 12.3707 37.9702 12.3077 37.9888 12.2403C38.0075 12.1729 38.0126 12.1025 38.0038 12.0332C38.001 11.992 38.0087 11.9508 38.026 11.9133C38.0433 11.8759 38.0697 11.8434 38.1028 11.8188C38.211 11.7323 38.2808 11.6067 38.2972 11.4692C38.3135 11.3317 38.2751 11.1932 38.1903 11.0838C38.1122 10.9847 38.0634 10.8657 38.0495 10.7404C38.0394 10.6437 38.0495 10.546 38.0792 10.4534C38.1088 10.3608 38.1573 10.2754 38.2216 10.2025C38.3668 10.035 38.5705 9.92934 38.7911 9.90715C38.9417 9.88774 39.0947 9.90916 39.2342 9.96917C39.3736 10.0292 39.4944 10.1256 39.5838 10.2482C39.625 10.3087 39.6784 10.3599 39.7404 10.3986C39.8025 10.4373 39.872 10.4627 39.9444 10.4731C40.0168 10.4836 40.0906 10.4788 40.161 10.4592C40.2315 10.4395 40.2971 10.4054 40.3537 10.3591C40.4504 10.2809 40.5676 10.2324 40.6912 10.2194C41.0163 10.1828 41.3095 10.3882 41.3417 10.6756C41.3431 10.6895 41.3438 10.7033 41.3442 10.7171C41.3467 10.8151 41.3765 10.9104 41.4301 10.9923C41.4838 11.0743 41.5592 11.1397 41.6479 11.1812C41.7447 11.2232 41.8289 11.2894 41.8925 11.3735C41.9561 11.4576 41.9969 11.5567 42.0109 11.6612C42.0191 11.7421 42.0105 11.8239 41.9856 11.9013C41.9608 11.9788 41.9201 12.0503 41.8663 12.1112C41.7427 12.2534 41.5696 12.343 41.3822 12.3616C41.3129 12.3687 41.2456 12.3894 41.1844 12.4226C41.1232 12.4558 41.0691 12.5008 41.0254 12.5551C40.9816 12.6093 40.949 12.6716 40.9295 12.7385C40.91 12.8054 40.9039 12.8754 40.9117 12.9447C40.9194 13.0139 40.9407 13.0809 40.9745 13.1418C41.0083 13.2028 41.0538 13.2564 41.1084 13.2997C41.163 13.3429 41.2256 13.3749 41.2927 13.3938C41.3597 13.4127 41.4299 13.4181 41.499 13.4098C41.953 13.3617 42.3715 13.142 42.6688 12.7956C42.8198 12.6219 42.9324 12.4181 42.999 12.1978C43.0657 11.9775 43.0851 11.7455 43.0558 11.5172C43.0265 11.2888 42.9492 11.0693 42.829 10.8729C42.7088 10.6766 42.5485 10.5078 42.3585 10.3779C42.2587 9.99413 42.0224 9.65997 41.6938 9.43799C41.3653 9.21602 40.9671 9.12145 40.5738 9.17203C40.4185 9.18923 40.2662 9.22755 40.1212 9.28594C39.9214 9.12068 39.6901 8.99767 39.4414 8.92434C39.1927 8.85101 38.9317 8.82889 38.6742 8.85932Z" fill="#0083FF"/>
<path d="M40.2 33.7526L37.0061 34.7896C37.562 35.6571 38.1544 36.5375 38.7834 37.4308H50.5244L43.8819 34.0453C43.3179 33.7559 42.7022 33.5811 42.0702 33.5309C41.4383 33.4806 40.8027 33.556 40.2 33.7526Z" fill="#0083FF"/>
<path d="M39.985 40.848C37.6405 37.7837 35.6924 34.853 34.1406 32.0558C33.7771 32.3292 33.3446 32.4959 32.8917 32.5373C32.4387 32.5786 31.9832 32.493 31.5762 32.29C31.1692 32.0869 30.8269 31.7745 30.5875 31.3878C30.3481 31.001 30.2212 30.5552 30.221 30.1004V27.9117C30.2189 27.7484 30.1525 27.5926 30.0363 27.4779C29.9201 27.3631 29.7634 27.2988 29.6001 27.2988C29.4368 27.2988 29.2801 27.3631 29.1638 27.4779C29.0476 27.5926 28.9813 27.7484 28.9791 27.9117V29.2464C28.9791 29.6768 28.8082 30.0896 28.5038 30.3939C28.1995 30.6982 27.7868 30.8692 27.3564 30.8692C26.926 30.8692 26.5133 30.6982 26.2089 30.3939C25.9046 30.0896 25.7337 29.6768 25.7337 29.2464V28.0558C25.7337 27.9258 25.682 27.8012 25.5901 27.7092C25.4982 27.6173 25.3735 27.5657 25.2435 27.5657C25.1136 27.5657 24.9889 27.6173 24.897 27.7092C24.8051 27.8012 24.7534 27.9258 24.7534 28.0558V31.4708C24.75 31.9 24.5771 32.3104 24.2723 32.6127C23.9676 32.9149 23.5558 33.0845 23.1266 33.0845C22.6974 33.0845 22.2856 32.9149 21.9809 32.6127C21.6762 32.3104 21.5033 31.9 21.4998 31.4708V28.1998C21.4996 28.0876 21.4697 27.9775 21.4131 27.8807C21.3565 27.7839 21.2752 27.7038 21.1776 27.6487C21.0799 27.5935 20.9694 27.5652 20.8572 27.5667C20.7451 27.5682 20.6354 27.5994 20.5392 27.6571C18.8463 31.7134 16.2128 36.1283 12.6632 40.8491C9.611 44.879 6.28753 48.6961 2.71594 52.2739H50.1171C46.4822 48.7016 43.0969 44.884 39.985 40.848ZM21.8037 36.4895C21.7766 36.5497 19.0254 42.6008 13.15 49.8236C13.1063 49.8773 13.0524 49.9219 12.9915 49.9548C12.9305 49.9877 12.8637 50.0083 12.7948 50.0154C12.7259 50.0225 12.6563 50.0159 12.5899 49.9961C12.5236 49.9763 12.4618 49.9436 12.408 49.8999C12.3543 49.8562 12.3097 49.8023 12.2768 49.7414C12.2439 49.6805 12.2233 49.6136 12.2162 49.5448C12.2092 49.4759 12.2157 49.4062 12.2355 49.3399C12.2553 49.2735 12.288 49.2117 12.3317 49.158C18.1139 42.05 20.815 36.1159 20.8417 36.0569C20.899 35.9293 21.0047 35.8297 21.1355 35.7801C21.2662 35.7304 21.4113 35.7348 21.5389 35.7921C21.6665 35.8494 21.766 35.9551 21.8157 36.0859C21.8653 36.2166 21.861 36.3617 21.8037 36.4893V36.4895ZM40.1447 49.8675C40.0448 49.9653 39.9101 50.0195 39.7703 50.0181C39.6305 50.0167 39.4969 49.9598 39.399 49.8599C33.8776 44.2236 30.8319 36.7848 30.7049 36.4709C30.6536 36.3415 30.6555 36.197 30.7103 36.069C30.7651 35.941 30.8683 35.8399 30.9974 35.7876C31.1264 35.7354 31.2709 35.7364 31.3993 35.7903C31.5277 35.8442 31.6295 35.9467 31.6826 36.0754C31.713 36.1504 34.7811 43.6388 40.1523 49.1219C40.2501 49.2218 40.3042 49.3565 40.3028 49.4963C40.3013 49.6361 40.2444 49.7696 40.1446 49.8675H40.1447Z" fill="#0083FF"/>
<path d="M18.0677 11.9468C18.0677 12.0249 18.0717 12.109 18.0799 12.2043C18.0884 12.302 18.0695 12.4002 18.0252 12.4877C17.981 12.5753 17.9132 12.6488 17.8295 12.7C16.7559 13.356 16.1151 14.4584 16.1151 15.6489C16.1151 17.5941 17.818 19.1767 19.9111 19.1767C20.478 19.1805 21.0389 19.0612 21.5551 18.8271C22.0714 18.5929 22.5306 18.2494 22.9011 17.8204V15.0398C22.9011 14.8999 22.9566 14.7658 23.0555 14.6669C23.1544 14.568 23.2886 14.5124 23.4284 14.5124C23.5683 14.5124 23.7024 14.568 23.8013 14.6669C23.9002 14.7658 23.9558 14.8999 23.9558 15.0398V20.9271H28.1685V15.0398C28.1685 14.8999 28.2241 14.7658 28.323 14.6669C28.4219 14.568 28.556 14.5124 28.6958 14.5124C28.8357 14.5124 28.9698 14.568 29.0687 14.6669C29.1676 14.7658 29.2232 14.8999 29.2232 15.0398V17.898C29.4683 18.3741 30.4473 19.7914 33.2937 19.4649C33.9115 19.3941 34.9573 19.0209 34.9573 18.0715C34.955 17.6482 34.7874 17.2425 34.4903 16.9409C34.1932 16.6394 33.7901 16.4658 33.3668 16.4572C33.289 16.4559 33.2123 16.4373 33.1425 16.4029C33.0726 16.3684 33.0112 16.3189 32.9628 16.258C32.9143 16.197 32.88 16.126 32.8622 16.0502C32.8445 15.9743 32.8437 15.8955 32.8601 15.8193C32.8907 15.6765 32.9062 15.5309 32.9063 15.3849C32.9013 15.0158 32.8026 14.654 32.6193 14.3336C32.4361 14.0131 32.1743 13.7446 31.8587 13.5531C31.7416 13.4792 31.6583 13.3622 31.6267 13.2273C31.5951 13.0925 31.6179 12.9507 31.69 12.8324C32.0493 12.2472 32.2403 11.5743 32.2419 10.8876C32.2419 8.71156 30.3388 6.94116 27.9995 6.94116C26.3722 6.94116 24.9134 7.78628 24.1926 9.14662C24.1584 9.21125 24.1111 9.26805 24.0537 9.31341C23.9963 9.35877 23.9301 9.39169 23.8593 9.41009C23.7885 9.42849 23.7147 9.43196 23.6425 9.42029C23.5703 9.40861 23.5013 9.38204 23.4399 9.34226C22.8576 8.96754 22.1791 8.76971 21.4866 8.77273C19.6016 8.7722 18.0677 10.1963 18.0677 11.9468Z" fill="#0083FF"/>
<path d="M32.6698 31.4923C33.0269 31.492 33.3702 31.3544 33.6287 31.1082C31.9246 27.8823 30.7689 24.8539 30.1767 22.0484C30.1724 22.0293 30.1617 22.0124 30.1463 22.0003C30.131 21.9882 30.1119 21.9818 30.0924 21.9821H22.413C22.3934 21.9818 22.3744 21.9883 22.3591 22.0004C22.3437 22.0125 22.3329 22.0295 22.3286 22.0485C21.9998 23.5709 21.5533 25.0654 20.9932 26.5187C21.4172 26.551 21.8135 26.7421 22.1028 27.0538C22.3922 27.3655 22.5533 27.7748 22.5541 28.2001V31.4708C22.5561 31.6212 22.6173 31.7647 22.7244 31.8703C22.8315 31.976 22.9758 32.0352 23.1262 32.0352C23.2766 32.0352 23.421 31.976 23.528 31.8703C23.6351 31.7647 23.6963 31.6212 23.6983 31.4708V28.0558C23.6983 27.6461 23.8611 27.2532 24.1508 26.9635C24.4405 26.6738 24.8334 26.511 25.2431 26.511C25.6528 26.511 26.0458 26.6738 26.3355 26.9635C26.6252 27.2532 26.7879 27.6461 26.7879 28.0558V29.2464C26.7879 29.3971 26.8478 29.5416 26.9543 29.6481C27.0608 29.7546 27.2053 29.8145 27.356 29.8145C27.5066 29.8145 27.6511 29.7546 27.7577 29.6481C27.8642 29.5416 27.924 29.3971 27.924 29.2464V27.9117C27.9275 27.4696 28.1056 27.0468 28.4195 26.7354C28.7334 26.4241 29.1576 26.2493 29.5997 26.2493C30.0418 26.2493 30.466 26.4241 30.7799 26.7354C31.0937 27.0468 31.2718 27.4696 31.2753 27.9117V30.1C31.276 30.4694 31.4232 30.8235 31.6846 31.0845C31.9461 31.3456 32.3004 31.4922 32.6698 31.4923Z" fill="#0083FF"/>
</svg>
