<svg width="54" height="54" viewBox="0 0 54 54" fill="none" xmlns="http://www.w3.org/2000/svg">
<path d="M24.7859 40.4375V43.7772H29.0675L29.4652 40.4378L24.7859 40.4375Z" fill="#0083FF"/>
<path d="M4.0282 47.0306H13.7356V44.8318H6.6183C5.9962 44.8325 5.39453 45.0539 4.92028 45.4565C4.44603 45.8591 4.12993 46.4169 4.0282 47.0306Z" fill="#0083FF"/>
<path d="M13.7356 43.7771V40.4364H12.4396L10.9908 43.7771H13.7356Z" fill="#0083FF"/>
<path d="M30.5273 40.4379L30.1296 43.7771H40.7692L39.3205 40.4385L30.5273 40.4379Z" fill="#0083FF"/>
<path d="M24.7859 44.8318V47.0306H50.5074C50.4058 46.417 50.0899 45.8593 49.6159 45.4567C49.1419 45.0541 48.5404 44.8327 47.9185 44.8318H24.7859Z" fill="#0083FF"/>
<path d="M13.7356 35.4929L10.1581 35.4685C9.6442 35.4762 9.15395 35.6857 8.79329 36.0519C8.43263 36.4181 8.23053 36.9115 8.23065 37.4254C8.23078 37.9394 8.43312 38.4327 8.79396 38.7987C9.15479 39.1647 9.64515 39.374 10.1591 39.3814H13.7356V35.4929Z" fill="#0083FF"/>
<path d="M22.626 34.3077H15.8955C15.655 34.3082 15.4212 34.387 15.2295 34.5321C15.0377 34.6772 14.8984 34.8808 14.8326 35.1122C14.8043 35.2099 14.7901 35.3112 14.7904 35.4129L14.7991 47.5142C14.8576 48.2213 15.1792 48.8807 15.7002 49.3622C16.2212 49.8438 16.9038 50.1125 17.6133 50.1154H18.7342V43.4163C18.7342 43.2765 18.7898 43.1423 18.8887 43.0435C18.9876 42.9446 19.1217 42.889 19.2615 42.889C19.4014 42.889 19.5355 42.9446 19.6344 43.0435C19.7333 43.1423 19.7889 43.2765 19.7889 43.4163V50.2569C19.7891 50.3571 19.7965 50.4572 19.8111 50.5564C19.8119 50.5609 19.8126 50.5655 19.8133 50.5702C19.8877 51.0329 20.1245 51.4541 20.4813 51.7581C20.838 52.0621 21.2914 52.2291 21.7601 52.2292C22.2829 52.2285 22.784 52.0205 23.1536 51.6507C23.5232 51.281 23.731 50.7797 23.7314 50.2569V35.4129C23.7315 35.3136 23.718 35.2148 23.6912 35.1191C23.6267 34.886 23.4877 34.6805 23.2953 34.534C23.1029 34.3875 22.8678 34.308 22.626 34.3077ZM19.7889 40.8243C19.7889 40.9642 19.7333 41.0983 19.6344 41.1972C19.5355 41.2961 19.4014 41.3517 19.2615 41.3517C19.1217 41.3517 18.9876 41.2961 18.8887 41.1972C18.7898 41.0983 18.7342 40.9642 18.7342 40.8243V40.2728C18.7342 40.133 18.7898 39.9988 18.8887 39.9C18.9876 39.8011 19.1217 39.7455 19.2615 39.7455C19.4014 39.7455 19.5355 39.8011 19.6344 39.9C19.7333 39.9988 19.7889 40.133 19.7889 40.2728V40.8243Z" fill="#0083FF"/>
<path d="M32.082 2.67346C25.7515 2.93945 19.9261 6.99114 17.4625 12.9754L25.5072 14.026C26.1708 9.54183 28.5228 5.48069 32.082 2.67346Z" fill="#0083FF"/>
<path d="M40.7756 16.0207L49.0226 17.0978C48.1752 10.6041 43.4953 5.16485 37.3209 3.328C40.0585 6.95887 41.2954 11.5033 40.7756 16.0207Z" fill="#0083FF"/>
<path d="M26.5532 14.1628L32.4621 14.9345L30.0455 35.5191L24.7859 35.5057V39.3828L40.5505 39.3839C41.1925 39.3743 41.8179 39.1786 42.3508 38.8204C42.8837 38.4623 43.3012 37.9572 43.5526 37.3664C43.5526 37.3664 46.9081 29.4948 48.593 25.546C48.8 25.0665 48.8165 24.5261 48.6394 24.0348C48.4623 23.5434 48.1048 23.1379 47.6395 22.9007L47.5803 22.869C47.3342 22.7406 47.0639 22.665 46.7868 22.6471C46.5097 22.6292 46.232 22.6693 45.9713 22.7649C45.7107 22.8605 45.4728 23.0095 45.2731 23.2024C45.0733 23.3952 44.9161 23.6277 44.8113 23.8848L40.5972 33.9036C40.3999 34.3883 40.0623 34.803 39.6276 35.0945C39.1929 35.3859 38.6811 35.5408 38.1577 35.5393L31.1881 35.5215L33.5876 15.0814L39.7301 15.8836C39.9975 13.5552 39.7692 11.1965 39.0603 8.96247C38.3514 6.72848 37.1779 4.66975 35.6168 2.92151C35.3489 2.87268 35.08 2.82923 34.8147 2.79495C34.4965 2.75276 34.1757 2.72302 33.8569 2.70129C29.9379 5.24889 27.2396 9.49222 26.5532 14.1628Z" fill="#0083FF"/>
<path d="M3.80194 8.92412H6.32412C6.41182 9.53495 6.6519 10.1139 7.02222 10.6075L5.23769 12.3926C5.13951 12.4916 5.08456 12.6255 5.08486 12.765C5.08517 12.9044 5.1407 13.0381 5.23932 13.1367C5.33793 13.2353 5.47159 13.2909 5.61105 13.2912C5.75051 13.2915 5.88441 13.2365 5.98346 13.1383L7.76788 11.354C8.26087 11.7241 8.83911 11.9641 9.44927 12.0518V14.5741C9.44927 14.7139 9.50482 14.8481 9.60372 14.947C9.70262 15.0459 9.83675 15.1014 9.97661 15.1014C10.1165 15.1014 10.2506 15.0459 10.3495 14.947C10.4484 14.8481 10.504 14.7139 10.504 14.5741V12.0513C11.1144 11.9635 11.693 11.7235 12.1863 11.3533L13.9708 13.1378C14.0697 13.2367 14.2038 13.2923 14.3437 13.2923C14.4836 13.2923 14.6177 13.2368 14.7166 13.1379C14.8155 13.039 14.8711 12.9048 14.8711 12.765C14.8711 12.6251 14.8156 12.4909 14.7167 12.392L12.9321 10.6074C13.3024 10.1138 13.5424 9.53492 13.6302 8.92412H16.1524C16.2923 8.92412 16.4264 8.86856 16.5253 8.76966C16.6242 8.67077 16.6798 8.53664 16.6798 8.39678C16.6798 8.25692 16.6242 8.12278 16.5253 8.02389C16.4264 7.92499 16.2923 7.86943 16.1524 7.86943H13.6302C13.5425 7.25892 13.3025 6.68032 12.9323 6.18699L14.7167 4.40257C14.8156 4.30366 14.8711 4.16951 14.8711 4.02965C14.8711 3.88978 14.8155 3.75564 14.7166 3.65675C14.6177 3.55785 14.4836 3.5023 14.3437 3.50231C14.2038 3.50232 14.0697 3.55789 13.9708 3.6568L12.1864 5.44122C11.6931 5.07099 11.1145 4.83095 10.504 4.74323V2.22095C10.504 2.08109 10.4484 1.94696 10.3495 1.84806C10.2506 1.74916 10.1165 1.6936 9.97661 1.6936C9.83675 1.6936 9.70262 1.74916 9.60372 1.84806C9.50482 1.94696 9.44927 2.08109 9.44927 2.22095V4.74323C8.83905 4.83098 8.26074 5.07095 7.76767 5.44101L5.98346 3.6568C5.93457 3.60748 5.87642 3.5683 5.81234 3.54151C5.74827 3.51473 5.67954 3.50086 5.61009 3.50071C5.54065 3.50056 5.47186 3.51412 5.40767 3.54063C5.34348 3.56713 5.28516 3.60606 5.23605 3.65516C5.18694 3.70427 5.14802 3.76259 5.12152 3.82678C5.09501 3.89097 5.08144 3.95976 5.0816 4.02921C5.08175 4.09865 5.09562 4.16738 5.1224 4.23146C5.14919 4.29553 5.18837 4.35368 5.23769 4.40257L7.02201 6.18689C6.65185 6.68027 6.41185 7.2589 6.32412 7.86943H3.80194C3.66208 7.86943 3.52795 7.92499 3.42905 8.02389C3.33016 8.12278 3.2746 8.25692 3.2746 8.39678C3.2746 8.53664 3.33016 8.67077 3.42905 8.76966C3.52795 8.86856 3.66208 8.92412 3.80194 8.92412Z" fill="#0083FF"/>
</svg>
