<svg width="54" height="54" viewBox="0 0 54 54" fill="none" xmlns="http://www.w3.org/2000/svg">
<path d="M29.5462 24.9701C29.5972 24.8496 29.6646 24.7368 29.7466 24.6349L31.1873 22.8585C31.2375 22.7962 31.2662 22.7194 31.2691 22.6395C31.2721 22.5595 31.2491 22.4808 31.2037 22.415L29.7429 20.3139C29.6559 20.1879 29.5899 20.0485 29.5475 19.9014H25.0334C24.9911 20.0486 24.9252 20.1879 24.8381 20.3139L23.3774 22.415C23.3319 22.4808 23.309 22.5595 23.3119 22.6395C23.3149 22.7194 23.3436 22.7962 23.3937 22.8585L24.8343 24.6349C24.9165 24.7368 24.9842 24.8496 25.0352 24.9701H29.5462Z" fill="#0083FF"/>
<path d="M15.2134 25.7731L16.3955 26.86C16.5792 27.029 16.7083 27.2491 16.7662 27.4919C17.633 27.7715 20.0916 28.5077 22.1255 28.5713C22.1688 28.4191 22.2375 28.2754 22.3287 28.1461L24.0298 25.7454C24.0762 25.6796 24.0999 25.6004 24.0973 25.5199C24.0947 25.4394 24.0659 25.3619 24.0153 25.2992L22.5747 23.5228C22.4849 23.4114 22.4125 23.2869 22.3601 23.1537C20.9348 23.1044 18.1154 22.2979 16.9276 21.9401C16.2145 23.1495 15.6395 24.4353 15.2134 25.7731Z" fill="#0083FF"/>
<path d="M32.3989 28.481C32.7631 28.5366 33.1321 28.5539 33.4999 28.5327C34.273 28.4942 35.4933 28.2889 37.0065 27.551C37.0566 27.2853 37.1912 27.0429 37.3902 26.86L38.69 25.6844C38.253 24.3694 37.6743 23.1059 36.9641 21.916C35.489 22.7908 33.1691 23.0586 32.23 23.1335C32.1769 23.2744 32.1016 23.4058 32.0069 23.5228L30.5663 25.2992C30.5158 25.3619 30.487 25.4394 30.4844 25.5199C30.4817 25.6004 30.5054 25.6795 30.5518 25.7454L32.189 28.0565C32.2806 28.1862 32.3515 28.3295 32.3989 28.481Z" fill="#0083FF"/>
<path d="M31.329 28.6663L29.6912 26.3552C29.6192 26.2532 29.5611 26.1421 29.5184 26.0248H25.0633C25.0206 26.1421 24.9625 26.2532 24.8906 26.3552L23.1895 28.7558C23.1384 28.8285 23.1151 28.9171 23.1238 29.0055C23.1325 29.0939 23.1726 29.1762 23.2369 29.2376L24.8575 30.7709C24.9792 30.8861 25.0794 31.022 25.1533 31.1724H29.4287C29.5027 31.0221 29.6029 30.8861 29.7246 30.7709L31.2655 29.313C31.3517 29.2307 31.4056 29.1201 31.4172 29.0014C31.4289 28.8828 31.3975 28.7639 31.329 28.6663Z" fill="#0083FF"/>
<path d="M32.9198 16.7783L30.6958 19.196C30.6855 19.2073 30.6747 19.2181 30.6634 19.2284C30.5976 19.2889 30.5559 19.3711 30.5459 19.46C30.536 19.5488 30.5585 19.6383 30.6094 19.7118L32.0701 21.813C32.1272 21.8958 32.1753 21.9845 32.2134 22.0776C33.3041 21.9859 35.2628 21.6933 36.4078 21.021C35.4298 19.5351 34.3032 18.1525 33.0455 16.8945C33.0049 16.8538 32.9622 16.8164 32.9198 16.7783Z" fill="#0083FF"/>
<path d="M14.6405 28.4082L15.6261 27.9734C15.6572 27.9597 15.6844 27.9385 15.7052 27.9116C15.726 27.8848 15.7397 27.8532 15.7452 27.8197C15.7508 27.7862 15.7478 27.7519 15.7368 27.7198C15.7257 27.6877 15.7067 27.6589 15.6817 27.6359L14.9026 26.9197C14.7893 27.4109 14.7018 27.9078 14.6405 28.4082Z" fill="#0083FF"/>
<path d="M28.8731 37.9208H25.7084C25.6268 38.1099 25.5051 38.279 25.3517 38.4165L24.1801 39.4645C24.1101 39.5273 24.0667 39.6144 24.0587 39.708C24.0506 39.8017 24.0785 39.8949 24.1367 39.9687L25.2442 41.3696C25.3388 41.4895 25.4135 41.6237 25.4656 41.7672H29.1149C29.167 41.6237 29.2417 41.4894 29.3363 41.3696L30.4444 39.9688C30.5026 39.8949 30.5305 39.8017 30.5225 39.7081C30.5144 39.6144 30.471 39.5273 30.401 39.4645L29.2294 38.4165C29.0762 38.279 28.9546 38.1098 28.8731 37.9208Z" fill="#0083FF"/>
<path d="M30.6932 44.2062L29.6035 43.3952C29.4042 43.2474 29.2474 43.0496 29.1488 42.8219H25.4328C25.3343 43.0496 25.1775 43.2473 24.9782 43.3951L23.6144 44.4104C23.6652 44.4472 23.7145 44.4842 23.7656 44.5209C24.7125 45.2006 25.8488 45.5662 27.0144 45.5662C28.18 45.5662 29.3163 45.2006 30.2632 44.5209C30.4083 44.4165 30.551 44.3113 30.6932 44.2062Z" fill="#0083FF"/>
<path d="M20.925 16.8144C19.6395 18.0891 18.4917 19.4955 17.5005 21.0104C19.2289 21.5197 21.4215 22.0695 22.3557 22.1068C22.3958 22.003 22.4481 21.9044 22.5114 21.813L23.9722 19.7118C24.023 19.6383 24.0456 19.5488 24.0356 19.46C24.0257 19.3711 23.984 19.2888 23.9182 19.2283L21.1002 16.6541C21.041 16.7054 20.9817 16.7583 20.925 16.8144Z" fill="#0083FF"/>
<path d="M23.0197 39.5326C23.0671 39.2029 23.2289 38.9005 23.4769 38.6783L24.6486 37.6302C24.6877 37.5953 24.7188 37.5524 24.7401 37.5045C24.7613 37.4566 24.772 37.4047 24.7716 37.3522C24.7712 37.2998 24.7597 37.2481 24.7377 37.2005C24.7158 37.1529 24.684 37.1105 24.6444 37.0762L23.0878 35.7257C23.0049 35.6531 22.9309 35.571 22.8672 35.4811C22.1044 35.7523 21.0063 35.89 19.5879 35.89H19.5246C18.7576 35.8878 18.0645 35.8465 17.6098 35.8115C17.5784 35.918 17.5343 36.0203 17.4785 36.1162L16.7368 37.3858C17.2751 38.2509 17.8802 39.0725 18.5465 39.8433C19.5732 39.9466 21.808 40.0366 23.0197 39.5326Z" fill="#0083FF"/>
<path d="M39.3841 31.159C39.4236 30.6672 39.4347 30.1735 39.4175 29.6804L37.7341 28.9385C37.5563 28.8596 37.3993 28.7404 37.2754 28.5905C35.5529 29.397 34.1474 29.5948 33.1893 29.5948C32.9107 29.5957 32.6323 29.5776 32.3561 29.5408C32.274 29.7443 32.1492 29.9277 31.9902 30.0787L30.4488 31.537C30.3837 31.5989 30.3434 31.6822 30.3352 31.7716C30.3271 31.861 30.3517 31.9504 30.4045 32.0229L31.7101 33.8105C31.8107 33.9487 31.8852 34.1041 31.9299 34.2691C33.3144 34.5771 35.3735 34.9136 36.2828 34.7693C36.3681 34.6095 36.4842 34.4681 36.6245 34.3535C36.7648 34.2389 36.9265 34.1533 37.1001 34.1017L38.9644 33.5346C39.1777 32.7575 39.3183 31.9622 39.3841 31.159Z" fill="#0083FF"/>
<path d="M37.1964 35.3026C37.178 35.348 37.1703 35.3971 37.174 35.4459C37.1776 35.4948 37.1925 35.5422 37.2175 35.5843L37.7717 36.5114C38.0747 35.9445 38.3407 35.3586 38.5681 34.7574L37.405 35.1113C37.3578 35.1249 37.3145 35.1493 37.2783 35.1825C37.2421 35.2157 37.2141 35.2568 37.1964 35.3026Z" fill="#0083FF"/>
<path d="M17.4876 34.7444C18.7637 34.8575 21.3731 34.9564 22.6142 34.4524C22.6451 34.2204 22.7335 33.9998 22.8712 33.8105L24.1768 32.0229C24.2297 31.9504 24.2543 31.861 24.2461 31.7716C24.238 31.6822 24.1975 31.5988 24.1324 31.537L22.5119 30.0037C22.3978 29.8952 22.3027 29.7683 22.2306 29.6284C20.0939 29.5898 17.5778 28.8592 16.5564 28.5331C16.4266 28.71 16.2528 28.8497 16.0521 28.9384L14.5484 29.6018C14.5021 30.9552 14.6694 32.3074 15.0441 33.6088L16.6859 34.1017C17.0265 34.2036 17.3141 34.4341 17.4876 34.7444Z" fill="#0083FF"/>
<path d="M31.1537 13.193C31.4454 13.7241 31.7426 14.4107 31.7443 15.0058C32.5184 15.1911 33.2264 15.5863 33.7904 16.148C34.0576 16.4146 34.3494 16.7181 34.6553 17.0523C34.9338 16.6544 35.3324 16.171 35.7957 15.8614C35.4062 15.4158 35.0308 15.0113 34.6825 14.6521C34.2267 14.1786 33.6779 13.8046 33.0707 13.5535C32.4634 13.3024 31.8107 13.1797 31.1537 13.193Z" fill="#0083FF"/>
<path d="M36.4809 16.6726C36.1337 16.8571 35.6923 17.384 35.3766 17.8718C36.5101 19.2017 37.5017 20.6463 38.3354 22.182C38.5267 22.5387 38.7048 22.8954 38.8698 23.2522C39.3713 23.2277 39.868 23.1423 40.349 22.998C39.9446 22.0319 39.4746 21.0945 38.9423 20.1925C38.9391 20.1875 38.9353 20.1825 38.9318 20.1774L38.9328 20.1767C38.2053 18.9483 37.3857 17.7769 36.4809 16.6726Z" fill="#0083FF"/>
<path d="M22.0391 16.0833L24.6296 18.4497C24.7536 18.5631 24.8562 18.6977 24.9328 18.8472H29.65C29.7224 18.7056 29.8183 18.5772 29.9336 18.4675L32.0161 16.2036C31.1851 15.8557 30.2507 15.8481 29.4142 16.1826C27.8798 16.7886 26.1709 16.7521 24.4721 16.0758C24.0896 15.9236 23.6815 15.8454 23.2698 15.8456C22.8481 15.8457 22.4304 15.9264 22.0391 16.0833Z" fill="#0083FF"/>
<path d="M30.8588 34.4325L29.5532 32.645C29.461 32.5182 29.3905 32.377 29.3447 32.2271H25.237C25.1912 32.377 25.1207 32.5182 25.0285 32.645L23.7229 34.4325C23.6688 34.5074 23.6445 34.5999 23.6549 34.6917C23.6653 34.7836 23.7095 34.8683 23.779 34.9293L25.3356 36.2798C25.5172 36.438 25.6556 36.6397 25.738 36.866H28.8437C28.9261 36.6397 29.0645 36.438 29.2461 36.2798L30.8027 34.9293C30.8722 34.8683 30.9164 34.7836 30.9268 34.6917C30.9371 34.5999 30.9129 34.5074 30.8588 34.4325Z" fill="#0083FF"/>
<path d="M24.3472 13.4022C24.3392 13.3994 24.3313 13.3971 24.3235 13.3943C24.0431 13.9744 23.8544 14.568 23.87 14.834C24.2097 14.8811 24.5426 14.9687 24.8614 15.095C26.3266 15.678 27.7278 15.7136 29.0261 15.2005C29.5557 14.9909 30.12 14.8827 30.6896 14.8817C30.6369 14.5472 30.3926 13.9535 30.0294 13.3621C29.9184 13.3935 29.8083 13.4292 29.6988 13.4693C28.0109 14.0913 26.2102 14.0686 24.3472 13.4022Z" fill="#0083FF"/>
<path d="M16.382 35.1118L15.456 34.8337C15.6543 35.3439 15.8803 35.8427 16.1331 36.3281L16.5677 35.5844C16.5924 35.5422 16.6071 35.4949 16.6109 35.4462C16.6147 35.3975 16.6074 35.3485 16.5895 35.303C16.5717 35.2575 16.5437 35.2167 16.5078 35.1835C16.4718 35.1504 16.4288 35.1259 16.382 35.1118Z" fill="#0083FF"/>
<path d="M13.698 22.7171C14.0285 22.9089 14.583 23.1472 15.1613 23.0335C16.2462 20.7429 17.673 18.8359 18.8639 17.4711C18.707 17.1051 18.1746 16.6568 17.6858 16.34C16.7119 17.4973 15.8336 18.7318 15.0597 20.0314L15.0607 20.032C15.0579 20.0363 15.0546 20.0405 15.0518 20.0449C14.542 20.9048 14.0897 21.7975 13.698 22.7171Z" fill="#0083FF"/>
<path d="M22.7321 43.752L24.3484 42.5491C24.388 42.5196 24.4213 42.4824 24.4464 42.4398C24.4714 42.3972 24.4876 42.35 24.494 42.3011C24.5005 42.2521 24.497 42.2023 24.4839 42.1547C24.4707 42.1071 24.4481 42.0626 24.4175 42.0238L23.3095 40.623C23.2949 40.6045 23.2824 40.585 23.2688 40.566C22.5365 40.8352 21.5445 40.9741 20.3066 40.9787H20.2428C20.008 40.9787 19.7842 40.9738 19.5754 40.9661C20.5614 41.9672 21.6162 42.8981 22.7321 43.752Z" fill="#0083FF"/>
<path d="M26.8392 49.2837C26.6383 49.272 26.4384 49.2502 26.2408 49.2205L27.0615 51.871L28.0606 49.2388C27.7809 49.2759 27.499 49.2947 27.2169 49.2951C27.0911 49.2951 26.9654 49.2916 26.8396 49.2846L26.8392 49.2837Z" fill="#0083FF"/>
<path d="M34.7992 40.5956C34.4904 40.6167 34.1811 40.626 33.8793 40.626C33.0457 40.622 32.2132 40.5634 31.3873 40.4504C31.3532 40.5107 31.3147 40.5684 31.2721 40.623L30.1641 42.0238C30.1334 42.0626 30.1108 42.1071 30.0977 42.1547C30.0845 42.2023 30.0811 42.2521 30.0875 42.301C30.094 42.35 30.1102 42.3972 30.1352 42.4398C30.1602 42.4824 30.1935 42.5196 30.2332 42.5491L31.5647 43.5405C32.7158 42.6421 33.7971 41.6576 34.7992 40.5956Z" fill="#0083FF"/>
<path d="M33.4241 46.2444C33.2986 47.7643 33.4452 50.4547 34.7402 51.8803C35.3351 52.5354 36.1021 52.8498 37.0765 52.839C37.2594 52.8476 37.4415 52.8091 37.6054 52.7273C37.7693 52.6454 37.9094 52.523 38.0125 52.3716C38.6426 51.4839 38.6559 49.3528 38.051 46.3709C37.7597 44.9357 37.3866 43.6037 37.137 42.7732C35.9847 44.0183 34.7438 45.1783 33.4241 46.2444Z" fill="#0083FF"/>
<path d="M17.0697 42.667C16.8189 43.4982 16.4427 44.8376 16.1497 46.2782C15.5455 49.2508 15.5591 51.3758 16.1872 52.2617C16.2903 52.4131 16.4305 52.5356 16.5944 52.6174C16.7583 52.6993 16.9405 52.7377 17.1235 52.729C18.0961 52.7354 18.8532 52.4263 19.4462 51.7735C20.7504 50.3373 20.8977 47.6202 20.7707 46.0849C19.4589 45.0332 18.2222 43.8911 17.0697 42.667Z" fill="#0083FF"/>
<path d="M15.6538 37.6375C14.4218 35.5555 13.7144 33.398 13.5316 31.165C13.1442 31.1273 12.7541 31.1254 12.3663 31.1595C12.6355 33.4973 13.4499 35.7797 14.8093 38.0065C15.0446 37.8917 15.3457 37.7543 15.6538 37.6375Z" fill="#0083FF"/>
<path d="M46.9526 25.9802C47.4474 27.3091 48.3105 27.9584 48.9473 28.2689C48.976 28.2838 49.0082 28.2903 49.0404 28.2875C49.0726 28.2848 49.1033 28.2731 49.129 28.2536C49.155 28.2357 49.1754 28.2109 49.1878 28.1819C49.2002 28.1529 49.2042 28.1211 49.1993 28.0899C48.1915 20.5911 45.8373 15.8288 42.202 13.9351C39.3905 12.4705 36.5066 13.1529 35.1435 13.6332C35.2449 13.7241 35.3435 13.819 35.4395 13.918C37.1194 15.6406 38.5919 17.554 39.827 19.6189C40.6353 20.8562 43.1028 22.0285 43.993 22.3788C44.1748 22.4472 45.9058 23.1687 46.9526 25.9802Z" fill="#0083FF"/>
<path d="M12.2801 30.108C12.6813 30.0738 13.0846 30.0717 13.4861 30.1016C13.4755 27.9469 13.9596 25.9277 14.6891 24.1129C14.2059 24.0767 13.7359 23.9384 13.3102 23.7073C12.5985 25.6716 12.1776 27.8249 12.2801 30.108Z" fill="#0083FF"/>
<path d="M40.7282 23.9801C40.2679 24.1321 39.7917 24.2306 39.3088 24.2736C40.0063 25.9872 40.3999 27.8091 40.4723 29.6578C40.9073 29.6792 41.3382 29.7533 41.7554 29.8784C41.7659 27.8669 41.4181 25.8696 40.7282 23.9801Z" fill="#0083FF"/>
<path d="M37.7908 38.5319C36.1914 40.9295 33.8873 43.2114 30.8784 45.3775C29.8911 46.0896 28.7256 46.5136 27.5115 46.6023L27.5577 48.2288C28.5688 48.1656 29.5425 47.8229 30.3702 47.2386C34.1631 44.5521 37.0134 41.7311 38.921 38.7755C38.6568 38.6413 38.2122 38.5535 37.7908 38.5319Z" fill="#0083FF"/>
<path d="M41.6923 31.1087C41.6964 31.0649 41.6993 31.0213 41.7029 30.9777C41.3074 30.8257 40.8905 30.7367 40.4675 30.714C40.4599 30.8909 40.4496 31.0674 40.4353 31.2437C40.2605 33.4088 39.5855 35.5056 38.4103 37.5342C38.7811 37.5851 39.14 37.7005 39.4708 37.8754C40.735 35.68 41.4755 33.4244 41.6923 31.1087Z" fill="#0083FF"/>
<path d="M26.5015 48.1923L26.4562 46.5972C25.2638 46.4989 24.1209 46.0772 23.1504 45.3775C20.1492 43.2218 17.8429 40.9461 16.2316 38.5507C15.9433 38.6513 15.6609 38.7681 15.3858 38.9006C17.3646 41.8073 20.2735 44.5965 24.1126 47.2682C24.824 47.762 25.643 48.0789 26.5015 48.1923Z" fill="#0083FF"/>
<path d="M25.3685 2.07227C25.0133 2.39704 24.713 2.77718 24.4793 3.19793C24.3516 3.4333 24.2426 3.67836 24.1533 3.93084L24.361 3.85701C24.715 3.72973 25.0115 3.47948 25.1964 3.15188C25.3814 2.82428 25.4424 2.44113 25.3685 2.07227Z" fill="#0083FF"/>
<path d="M29.3414 3.85706C29.2754 3.68261 29.2105 3.51956 29.1495 3.3719C28.9509 2.89399 28.6761 2.45151 28.3357 2.06177C28.2595 2.43177 28.3192 2.81681 28.5038 3.14639C28.6884 3.47597 28.9855 3.72803 29.3408 3.85642L29.3414 3.85706Z" fill="#0083FF"/>
<path d="M38.1008 27.6393C38.0763 27.6619 38.058 27.6904 38.0475 27.722C38.0371 27.7536 38.0348 27.7873 38.0409 27.8201C38.0459 27.8537 38.0595 27.8854 38.0803 27.9122C38.1011 27.9391 38.1284 27.9601 38.1596 27.9734L39.3229 28.4861C39.2524 27.9233 39.1489 27.365 39.0129 26.8143L38.1008 27.6393Z" fill="#0083FF"/>
<path d="M24.1881 8.86988C24.9916 9.18375 27.9055 10.151 30.0794 8.68193C30.296 7.55342 30.0794 6.24856 29.7622 5.12658L28.9864 4.84994C28.3881 4.63495 27.8881 4.2103 27.5791 3.65473C27.27 3.09916 27.173 2.45037 27.3059 1.82868L27.4162 1.26558C27.2491 1.18576 27.0642 1.15043 26.8794 1.16301C26.6946 1.17559 26.5162 1.23566 26.3615 1.33741L26.2989 1.37875L26.3961 1.82857C26.529 2.45029 26.432 3.09914 26.123 3.65477C25.814 4.2104 25.314 4.63512 24.7156 4.85015L23.8574 5.15601C23.7232 6.11366 23.7573 7.3486 24.1881 8.86988Z" fill="#0083FF"/>
<path d="M37.1666 37.5537L36.31 36.121C36.2575 36.031 36.2151 35.9355 36.1835 35.8362C36.0402 35.8474 35.8882 35.8528 35.7288 35.8528C34.4266 35.8528 32.6733 35.5098 31.8132 35.3225C31.7324 35.4754 31.6241 35.6121 31.4936 35.7255L29.9373 37.0765C29.8977 37.1108 29.8659 37.1532 29.8439 37.2008C29.822 37.2484 29.8104 37.3001 29.81 37.3525C29.8096 37.4049 29.8204 37.4568 29.8416 37.5048C29.8628 37.5527 29.894 37.5955 29.9331 37.6305L31.1046 38.6785C31.3196 38.8711 31.4705 39.1247 31.5371 39.4055C32.373 39.5174 34.3386 39.7189 35.8466 39.3924C36.3226 38.8062 36.7634 38.1922 37.1666 37.5537Z" fill="#0083FF"/>
<path d="M19.6033 16.658C19.812 16.4374 20.007 16.239 20.1833 16.0646C20.8939 15.3607 21.8234 14.9203 22.8182 14.8163C22.8335 14.4226 22.9165 14.0344 23.0636 13.6689C23.1303 13.4857 23.2042 13.3098 23.2751 13.1521C23.0881 13.1299 22.8998 13.1186 22.7114 13.1183C22.0854 13.1157 21.4651 13.2377 20.8867 13.4772C20.3083 13.7168 19.7834 14.0691 19.3426 14.5137C19.0406 14.8212 18.7183 15.1626 18.3842 15.5347C18.7783 15.7991 19.2729 16.1894 19.6033 16.658Z" fill="#0083FF"/>
<path d="M23.7298 12.1528C24.0607 12.2105 24.386 12.2963 24.7022 12.4092C26.3265 12.99 27.8849 13.0137 29.335 12.4799C29.831 12.2978 30.3504 12.187 30.8776 12.151C30.7899 12.0146 30.6932 11.8842 30.5881 11.7607C30.1692 11.2645 29.924 10.645 29.8898 9.99646C29.0608 10.3647 28.162 10.5494 27.255 10.5379C26.3017 10.5276 25.3554 10.3741 24.4476 10.0827C24.4768 10.8066 24.2422 11.5165 23.7874 12.0805C23.768 12.1046 23.7488 12.1287 23.7298 12.1528Z" fill="#0083FF"/>
<path d="M4.87097 28.2538C4.8967 28.2732 4.92744 28.285 4.95961 28.2877C4.99178 28.2904 5.02406 28.284 5.05269 28.269C5.68951 27.9584 6.55256 27.3093 7.04742 25.9804C8.07447 23.2218 9.76018 22.4753 9.99474 22.3832C10.5947 22.1108 11.1797 21.8066 11.7472 21.4718C12.9371 20.7685 13.7736 20.0762 14.1678 19.4692C15.4108 17.4022 16.8953 15.4904 18.59 13.7742C18.6322 13.7312 18.6752 13.6898 18.7186 13.6476C17.3902 13.1711 14.5436 12.4757 11.7737 13.9137C8.15864 15.791 5.81259 20.5598 4.80072 28.0887C4.79551 28.12 4.79935 28.1522 4.81179 28.1815C4.82424 28.2107 4.84476 28.2358 4.87097 28.2538Z" fill="#0083FF"/>
</svg>
