<svg width="24" height="24" viewBox="0 0 24 24" fill="none" xmlns="http://www.w3.org/2000/svg">
<path d="M2.25 2.25V5.25H21.75V2.25H23.25V15.75C23.2499 16.6143 22.9514 17.4521 22.4049 18.1217C21.8584 18.7913 21.0975 19.2517 20.2507 19.425L20.25 22.5H18.75V19.5H5.25V22.5H3.75V19.425C2.9305 19.2574 2.19051 18.8207 1.64763 18.1843C1.10476 17.548 0.790131 16.7484 0.75375 15.9127L0.75 15.75V2.25H2.25ZM6.75 6.75H5.25V18H6.75V6.75ZM9.75 6.75H8.25V18H9.75V6.75ZM12.75 6.75H11.25V18H12.75V6.75ZM15.75 6.75H14.25V18H15.75V6.75ZM18.75 6.75H17.25V18H18.75V6.75ZM3.75 6.75H2.25V15.75C2.25 16.7295 2.87625 17.5635 3.75 17.8725V6.75ZM21.75 6.75H20.25V17.8717C20.6674 17.724 21.032 17.4564 21.2982 17.1025C21.5643 16.7486 21.7202 16.324 21.7463 15.882L21.75 15.75V6.75Z" fill="#353535"/>
</svg>
