<svg width="24" height="24" viewBox="0 0 24 24" fill="none" xmlns="http://www.w3.org/2000/svg">
<g clip-path="url(#clip0_1_4035)">
<path d="M17.7002 19.5H1.2002C0.650195 19.5 0.200195 19.05 0.200195 18.5C0.200195 17.95 0.650195 17.5 1.2002 17.5H17.3502L22.1502 13.8C22.6002 13.45 23.2002 13.55 23.5002 13.95C23.8502 14.4 23.7502 15 23.3502 15.3L18.3002 19.2C18.1502 19.45 17.9502 19.5 17.7002 19.5Z" fill="#353535"/>
<path d="M2.3501 22.35C1.8001 22.35 1.3501 21.9 1.3501 21.35V18.5C1.3501 17.95 1.8001 17.5 2.3501 17.5C2.9001 17.5 3.3501 17.95 3.3501 18.5V21.35C3.3001 21.9 2.8501 22.35 2.3501 22.35Z" fill="#353535"/>
<path d="M17.7002 22.35C17.1502 22.35 16.7002 21.9 16.7002 21.35V18.5C16.7002 17.95 17.1502 17.5 17.7002 17.5C18.2502 17.5 18.7002 17.95 18.7002 18.5V21.35C18.7002 21.9 18.2502 22.35 17.7002 22.35Z" fill="#353535"/>
<path d="M10.5503 23.75C10.0003 23.75 9.55029 23.3 9.55029 22.75V11.45C9.55029 10.9 10.0003 10.45 10.5503 10.45C11.1003 10.45 11.5503 10.9 11.5503 11.45V22.8C11.5003 23.3 11.0503 23.75 10.5503 23.75Z" fill="#353535"/>
<path d="M19.2001 11.35H1.8501C1.3001 11.35 0.850098 10.9 0.850098 10.35C0.850098 4.75001 5.1501 0.200012 10.5001 0.200012C15.8001 0.200012 20.1501 4.75001 20.1501 10.35C20.1501 10.9 19.7501 11.35 19.2001 11.35ZM2.9001 9.40001H18.1501C17.7001 5.35001 14.4501 2.20001 10.5501 2.20001C6.6001 2.20001 3.3501 5.35001 2.9001 9.40001Z" fill="#353535"/>
</g>
<defs>
<clipPath id="clip0_1_4035">
<rect width="24" height="24" fill="white"/>
</clipPath>
</defs>
</svg>
