<svg width="24" height="24" viewBox="0 0 24 24" fill="none" xmlns="http://www.w3.org/2000/svg">
<g clip-path="url(#clip0_1_4060)">
<path d="M21.25 13.95H2.75C1.35 13.95 0.25 12.85 0.25 11.45V1.25C0.25 0.7 0.7 0.25 1.25 0.25H22.8C23.35 0.25 23.8 0.7 23.8 1.25V11.45C23.75 12.85 22.65 13.95 21.25 13.95ZM2.2 2.2V11.45C2.2 11.75 2.45 12 2.75 12H21.25C21.55 12 21.8 11.75 21.8 11.45V2.2H2.2Z" fill="#353535"/>
<path d="M18.0999 6.2H5.8999C5.3499 6.2 4.8999 5.75 4.8999 5.2C4.8999 4.65 5.3499 4.2 5.8999 4.2H18.0499C18.5999 4.2 19.0499 4.65 19.0499 5.2C19.0499 5.75 18.5999 6.2 18.0999 6.2Z" fill="#353535"/>
<path d="M18.0999 9.95H5.8999C5.3499 9.95 4.8999 9.5 4.8999 8.95C4.8999 8.4 5.3499 7.95 5.8999 7.95H18.0499C18.5999 7.95 19.0499 8.4 19.0499 8.95C19.0499 9.5 18.5999 9.95 18.0999 9.95Z" fill="#353535"/>
<path d="M6.3 23.75C6 23.75 5.75 23.65 5.55 23.4C4.85 22.6 4.55 21.55 4.65 20.5C4.7 20.05 4.85 19.6 4.95 19.25C5 19.05 5.05 18.9 5.1 18.7C5.15 18.4 5.2 18.2 5.15 18C5 17.95 4.9 17.85 4.8 17.7C4.45 17.3 4.5 16.65 4.95 16.3C5.2 16.1 5.5 16 5.85 16.05C6.2 16.1 6.55 16.35 6.75 16.65C7.2 17.3 7.3 18.15 7.05 19.1C7 19.3 6.95 19.55 6.85 19.75C6.75 20.05 6.65 20.35 6.65 20.65C6.6 21.15 6.75 21.7 7.1 22.05C7.45 22.45 7.4 23.1 7 23.45C6.75 23.65 6.55 23.75 6.3 23.75Z" fill="#353535"/>
<path d="M12.4001 23.75C12.1001 23.75 11.8501 23.65 11.6501 23.4C10.9501 22.6 10.6501 21.55 10.7501 20.5C10.8001 20.05 10.9501 19.6 11.0501 19.25C11.1001 19.05 11.1501 18.9 11.2001 18.7C11.2501 18.4 11.3001 18.2 11.2501 18C11.1001 17.95 11.0001 17.85 10.9001 17.7C10.5501 17.3 10.6001 16.65 11.0501 16.3C11.3001 16.1 11.6001 16 11.9501 16.05C12.3001 16.1 12.6501 16.35 12.8501 16.65C13.3001 17.3 13.4001 18.15 13.1501 19.1C13.1001 19.3 13.0501 19.55 12.9501 19.75C12.8501 20.05 12.7501 20.35 12.7501 20.65C12.7001 21.15 12.8501 21.7 13.2001 22.05C13.5501 22.45 13.5001 23.1 13.1001 23.45C12.8501 23.65 12.6001 23.75 12.4001 23.75Z" fill="#353535"/>
<path d="M18.4499 23.75C18.1499 23.75 17.8999 23.65 17.6999 23.4C16.9999 22.6 16.6999 21.55 16.7999 20.5C16.8499 20.05 16.9999 19.6 17.0999 19.25C17.1499 19.05 17.1999 18.9 17.2499 18.7C17.2999 18.4 17.3499 18.2 17.2999 18C17.1499 17.95 17.0499 17.85 16.9499 17.7C16.5999 17.3 16.6499 16.65 17.0999 16.3C17.3499 16.1 17.6499 16 17.9999 16.05C18.3499 16.1 18.6999 16.35 18.8999 16.65C19.3499 17.3 19.4499 18.15 19.1999 19.1C19.1499 19.3 19.0999 19.55 18.9999 19.75C18.8999 20.05 18.7999 20.35 18.7999 20.65C18.7499 21.15 18.8999 21.7 19.2499 22.05C19.5999 22.45 19.5499 23.1 19.1499 23.45C18.8999 23.65 18.6499 23.75 18.4499 23.75Z" fill="#353535"/>
</g>
<defs>
<clipPath id="clip0_1_4060">
<rect width="24" height="24" fill="white"/>
</clipPath>
</defs>
</svg>
