<svg width="24" height="24" viewBox="0 0 24 24" fill="none" xmlns="http://www.w3.org/2000/svg">
<g clip-path="url(#clip0_1_4111)">
<path d="M10.5002 20.25L10.4965 20.4C10.4594 21.1421 10.1482 21.8441 9.62321 22.3699C9.09822 22.8957 8.39677 23.208 7.65472 23.2463L7.50022 23.25H3.00022V21.75H7.50022L7.61272 21.7463C7.96985 21.7194 8.30559 21.5657 8.55924 21.3129C8.81289 21.06 8.96772 20.7248 8.99572 20.3678L9.00022 20.25H10.5002ZM7.50022 0.750003C7.90222 0.750003 8.30047 0.785253 8.68522 0.853503L8.97022 0.911253L22.0562 3.64125C22.3728 3.70723 22.6595 3.87372 22.8737 4.11591C23.0879 4.35811 23.2181 4.66303 23.245 4.98525L23.2502 5.10975V9.89025C23.2502 10.2136 23.1456 10.5282 22.9522 10.7873C22.7588 11.0464 22.4869 11.236 22.177 11.328L22.057 11.358L11.8915 13.4775L13.2167 18.357C13.2741 18.5686 13.2845 18.7902 13.247 19.0063C13.2095 19.2223 13.1252 19.4275 12.9998 19.6074C12.8745 19.7873 12.7112 19.9375 12.5215 20.0475C12.3319 20.1575 12.1204 20.2246 11.902 20.244L11.7692 20.25H8.82022C8.51253 20.25 8.21228 20.1554 7.96019 19.9789C7.70809 19.8025 7.51635 19.5528 7.41097 19.2638L7.37497 19.1513L5.96497 14.0745C4.35059 13.699 2.93081 12.7427 1.97617 11.3877C1.02154 10.0328 0.598802 8.37395 0.788521 6.72738C0.978239 5.0808 1.76715 3.56159 3.00491 2.45925C4.24267 1.35691 5.84275 0.748514 7.50022 0.750003ZM11.7692 18.75L10.42 13.7843L9.06547 14.0678C8.65608 14.1648 8.23851 14.2233 7.81822 14.2425L7.56997 14.2485L8.82022 18.75H11.7692ZM7.50022 2.25C6.76905 2.25032 6.046 2.40336 5.37741 2.69933C4.70882 2.99529 4.10942 3.42765 3.61761 3.9687C3.1258 4.50975 2.75243 5.14757 2.52142 5.84129C2.29041 6.53501 2.20686 7.26933 2.2761 7.99722C2.34535 8.7251 2.56588 9.4305 2.92355 10.0682C3.28123 10.7059 3.76817 11.2619 4.35318 11.7005C4.93818 12.1391 5.60836 12.4507 6.32077 12.6153C7.03317 12.7799 7.7721 12.7938 8.49022 12.6563L8.73847 12.6038L21.7502 9.89025V5.10975L8.65372 2.37675C8.27506 2.29217 7.88821 2.24966 7.50022 2.25ZM7.50022 3.75C8.49478 3.75 9.44861 4.14509 10.1519 4.84835C10.8551 5.55161 11.2502 6.50544 11.2502 7.5C11.2502 8.49457 10.8551 9.44839 10.1519 10.1517C9.44861 10.8549 8.49478 11.25 7.50022 11.25C6.50566 11.25 5.55183 10.8549 4.84857 10.1517C4.14531 9.44839 3.75022 8.49457 3.75022 7.5C3.75022 6.50544 4.14531 5.55161 4.84857 4.84835C5.55183 4.14509 6.50566 3.75 7.50022 3.75ZM7.50022 5.25C6.90348 5.25 6.33119 5.48706 5.90923 5.90901C5.48727 6.33097 5.25022 6.90327 5.25022 7.5C5.25022 8.09674 5.48727 8.66904 5.90923 9.09099C6.33119 9.51295 6.90348 9.75 7.50022 9.75C8.09696 9.75 8.66925 9.51295 9.09121 9.09099C9.51317 8.66904 9.75022 8.09674 9.75022 7.5C9.75022 6.90327 9.51317 6.33097 9.09121 5.90901C8.66925 5.48706 8.09696 5.25 7.50022 5.25Z" fill="#353535"/>
</g>
<defs>
<clipPath id="clip0_1_4111">
<rect width="24" height="24" fill="white"/>
</clipPath>
</defs>
</svg>
