<svg width="24" height="24" viewBox="0 0 24 24" fill="none" xmlns="http://www.w3.org/2000/svg">
<g clip-path="url(#clip0_1_4050)">
<path d="M12 23.75C5.5 23.75 0.25 18.5 0.25 12C0.25 5.5 5.5 0.25 12 0.25C18.5 0.25 23.75 5.5 23.75 12C23.75 18.5 18.5 23.75 12 23.75ZM12 2.2C6.6 2.2 2.2 6.6 2.2 12C2.2 17.4 6.6 21.8 12 21.8C17.4 21.8 21.8 17.4 21.8 12C21.8 6.6 17.4 2.2 12 2.2Z" fill="#353535"/>
<path d="M15.6502 7.95001C16.3002 8.50001 16.6002 9.35001 16.6002 10.5C16.6002 11.65 16.2502 12.45 15.6002 13C14.9502 13.55 13.9002 13.8 12.5502 13.8H11.3002V16.9C11.3002 17.45 10.8502 17.95 10.2502 17.95C9.7002 17.95 9.2002 17.5 9.2002 16.9V8.05001C9.2002 7.50001 9.6502 7.10001 10.1502 7.10001H12.4502C14.0002 7.10001 15.0502 7.40001 15.6502 7.95001ZM14.1502 11.55C14.4002 11.25 14.5002 10.85 14.5002 10.35C14.5002 9.85001 14.3502 9.45001 14.0002 9.20001C13.7002 9.00001 13.2002 8.85001 12.5002 8.85001H11.3002V12H12.7002C13.4502 12 13.9002 11.85 14.1502 11.55Z" fill="#353535"/>
</g>
<defs>
<clipPath id="clip0_1_4050">
<rect width="24" height="24" fill="white"/>
</clipPath>
</defs>
</svg>
