<svg width="24" height="24" viewBox="0 0 24 24" fill="none" xmlns="http://www.w3.org/2000/svg">
<g clip-path="url(#clip0_1_4079)">
<path d="M1.64722 16.9821C3.31494 15.3144 6.0282 15.3144 7.69592 16.9819C7.69611 16.9821 7.69611 16.9821 7.69629 16.9823C10.1001 19.3859 13.9913 19.3867 16.396 16.9825C16.3962 16.9823 16.3964 16.9821 16.3967 16.9818C18.0643 15.3144 20.7775 15.3144 22.4451 16.9821C22.8113 17.3481 23.4049 17.3481 23.7709 16.9821C24.137 16.6159 24.137 16.0225 23.7709 15.6562C21.8533 13.7386 18.9743 13.3544 16.671 14.5029V2.78101C16.671 2.28131 17.0775 1.87482 17.5772 1.87482C18.0769 1.87482 18.4834 2.28149 18.4834 2.78101C18.4834 3.29883 18.9031 3.71851 19.4209 3.71851C19.9385 3.71851 20.3582 3.29883 20.3582 2.78101C20.3582 1.24768 19.1107 0 17.5772 0C16.0437 0 14.796 1.24768 14.796 2.78101V5.53088H9.29645V2.78101C9.29645 2.28131 9.70294 1.87482 10.2025 1.87482C10.7023 1.87482 11.1086 2.28149 11.1086 2.78101C11.1086 3.29883 11.5285 3.71851 12.0461 3.71851C12.564 3.71851 12.9836 3.29883 12.9836 2.78101C12.9836 1.24768 11.7361 0 10.2025 0C8.66913 0 7.42145 1.24768 7.42145 2.78101V14.5029C5.11816 13.3544 2.2392 13.7388 0.321533 15.6562C-0.0446777 16.0225 -0.0446777 16.6159 0.321533 16.9821C0.687561 17.3481 1.28119 17.3481 1.64722 16.9821ZM9.29645 15.9071V12.9368H14.796V15.9071C13.2339 17.2233 10.9063 17.2634 9.29645 15.9071ZM14.796 7.40588V11.0618H9.29645V7.40588H14.796ZM23.7709 20.8709C24.137 21.2371 24.137 21.8306 23.7709 22.1966C23.4049 22.5628 22.8113 22.5628 22.4451 22.1966C20.7775 20.5291 18.0639 20.5291 16.3964 22.1966C13.9918 24.6013 10.1003 24.601 7.69611 22.1966C6.02838 20.5291 3.31494 20.5291 1.64722 22.1966C1.28119 22.5628 0.687561 22.5628 0.321533 22.1966C-0.0444947 21.8306 -0.0446777 21.2369 0.321533 20.8709C2.72021 18.4722 6.62311 18.4722 9.02179 20.8709C10.6935 22.5427 13.3993 22.5425 15.0707 20.8709C17.4694 18.4722 21.3723 18.4722 23.7709 20.8709Z" fill="#353535"/>
</g>
<defs>
<clipPath id="clip0_1_4079">
<rect width="24" height="24" fill="white"/>
</clipPath>
</defs>
</svg>
