<svg width="24" height="24" viewBox="0 0 24 24" fill="none" xmlns="http://www.w3.org/2000/svg">
<g clip-path="url(#clip0_1_4085)">
<path d="M22.75 23.75H1.25C0.7 23.75 0.25 23.3 0.25 22.75V8.25C0.25 7.7 0.7 7.25 1.25 7.25H22.8C23.35 7.25 23.8 7.7 23.8 8.25V22.75C23.75 23.3 23.3 23.75 22.75 23.75ZM2.2 21.8H21.8V9.25H2.2V21.8Z" fill="#353535"/>
<path d="M22.75 9.25H1.25C0.7 9.25 0.25 8.8 0.25 8.25V1.25C0.25 0.7 0.7 0.25 1.25 0.25H22.8C23.35 0.25 23.8 0.7 23.8 1.25V8.3C23.75 8.85 23.3 9.25 22.75 9.25ZM2.2 7.3H21.8V2.2H2.2V7.3Z" fill="#353535"/>
<path d="M12.0002 20.05C9.5002 20.05 7.4502 18 7.4502 15.5C7.4502 13 9.5002 11 12.0002 11C14.5002 11 16.5502 13.05 16.5502 15.55C16.5502 18.05 14.5002 20.05 12.0002 20.05ZM12.0002 12.95C10.6002 12.95 9.4502 14.1 9.4502 15.5C9.4502 16.9 10.6002 18.05 12.0002 18.05C13.4002 18.05 14.5502 16.9 14.5502 15.5C14.5502 14.1 13.4002 12.95 12.0002 12.95Z" fill="#353535"/>
<path d="M6.1 5.75H5.5C4.95 5.75 4.5 5.3 4.5 4.75C4.5 4.2 4.95 3.75 5.5 3.75H6.1C6.65 3.75 7.1 4.2 7.1 4.75C7.1 5.3 6.65 5.75 6.1 5.75Z" fill="#353535"/>
<path d="M12.3002 5.75H11.7002C11.1502 5.75 10.7002 5.3 10.7002 4.75C10.7002 4.2 11.1502 3.75 11.7002 3.75H12.3002C12.8502 3.75 13.3002 4.2 13.3002 4.75C13.3002 5.3 12.8502 5.75 12.3002 5.75Z" fill="#353535"/>
<path d="M18.5004 5.75H17.9004C17.3504 5.75 16.9004 5.3 16.9004 4.75C16.9004 4.2 17.3504 3.75 17.9004 3.75H18.5004C19.0504 3.75 19.5004 4.2 19.5004 4.75C19.5004 5.3 19.0504 5.75 18.5004 5.75Z" fill="#353535"/>
</g>
<defs>
<clipPath id="clip0_1_4085">
<rect width="24" height="24" fill="white"/>
</clipPath>
</defs>
</svg>
