<svg width="24" height="24" viewBox="0 0 24 24" fill="none" xmlns="http://www.w3.org/2000/svg">
<path d="M12.0008 19.6892C12.6989 19.6892 13.2648 19.1232 13.2648 18.4251C13.2648 17.727 12.6989 17.1611 12.0008 17.1611C11.3027 17.1611 10.7368 17.727 10.7368 18.4251C10.7368 19.1232 11.3027 19.6892 12.0008 19.6892Z" fill="#353535"/>
<path d="M4.02925 8.33706C6.15405 6.28431 8.98417 5.15302 12.0001 5.15302C15.016 5.15302 17.8461 6.28431 19.9709 8.33706C20.2162 8.5747 20.5334 8.69225 20.8494 8.69225C21.1806 8.69225 21.5105 8.56332 21.7583 8.30673C22.2436 7.80491 22.2297 7.0048 21.7292 6.51942C19.1291 4.00783 15.6733 2.625 12.0001 2.625C8.32688 2.625 4.87108 4.00783 2.27227 6.51942C1.77046 7.00353 1.75655 7.80491 2.24193 8.30673C2.72731 8.80854 3.52743 8.82371 4.02925 8.33706Z" fill="#353535"/>
<path d="M18.3204 12.7371C18.6515 12.7371 18.9814 12.6081 19.2292 12.3515C19.7146 11.8497 19.7007 11.0496 19.1988 10.5642C17.2738 8.70488 14.7167 7.68103 12.0003 7.68103C9.28395 7.68103 6.72686 8.70488 4.80303 10.5642C4.30122 11.0496 4.28732 11.8497 4.7727 12.3515C5.25555 12.8534 6.05946 12.8685 6.55874 12.3819C8.00983 10.9801 9.94124 10.2091 12.0003 10.2091C14.0594 10.2091 15.9908 10.9801 17.4431 12.3819C17.6871 12.6195 18.0044 12.7371 18.3204 12.7371Z" fill="#353535"/>
<path d="M7.96158 14.3563C7.46104 14.8417 7.44713 15.6418 7.93251 16.1436C8.41915 16.6454 9.21801 16.6593 9.71982 16.1739C10.932 15.0009 13.0695 15.0009 14.2816 16.1739C14.5269 16.4116 14.8441 16.5291 15.1601 16.5291C15.4913 16.5291 15.8199 16.4002 16.0689 16.1436C16.5543 15.6418 16.5404 14.8417 16.0399 14.3563C14.9579 13.3122 13.5232 12.7371 12.0001 12.7371C10.477 12.7371 9.04231 13.3122 7.96158 14.3563Z" fill="#353535"/>
</svg>
