<svg width="30" height="30" viewBox="0 0 30 30" fill="none" xmlns="http://www.w3.org/2000/svg">
<path d="M3 9.4417V23.3563C3 23.8112 3.47625 24.1221 3.91417 23.9534L9.66667 21.4286V6L3.83833 8.24799C3.59091 8.34342 3.3788 8.50814 3.22938 8.72091C3.07995 8.93367 3.00006 9.18473 3 9.4417V9.4417ZM11 21.4286L19 24V8.57143L11 6V21.4286ZM26.0858 6.04661L20.3333 8.57143V24L26.1617 21.752C26.4091 21.6566 26.6213 21.4919 26.7707 21.2791C26.9201 21.0664 27 20.8153 27 20.5583V6.64366C27 6.18884 26.5238 5.87786 26.0858 6.04661Z" fill="#D8E5EE"/>
</svg>
