<svg width="76" height="61" viewBox="0 0 76 61" fill="none" xmlns="http://www.w3.org/2000/svg">
<path d="M0 61V40.5919C0 32.9669 1.34513 25.94 4.0354 19.5111C6.72566 13.0821 11.2842 6.57847 17.7109 3.05176e-05L29.3687 9.19488C24.586 14.1287 21.2232 18.6888 19.2802 22.875C17.3373 27.0613 16.3658 31.5466 16.3658 36.3309L9.41593 29.8272H31.3864V61H0ZM44.6136 61V40.5919C44.6136 32.9669 45.9587 25.94 48.649 19.5111C51.3392 13.0821 55.8977 6.57847 62.3245 3.05176e-05L73.9823 9.19488C69.1996 14.1287 65.8368 18.6888 63.8938 22.875C61.9508 27.0613 60.9794 31.5466 60.9794 36.3309L54.0295 29.8272H76V61H44.6136Z" fill="#0083FF"/>
</svg>
